<?xml version="1.0" encoding="utf-8"?>
<!-- Generator: Adobe Illustrator 23.0.0, SVG Export Plug-In . SVG Version: 6.00 Build 0)  -->
<svg version="1.1" id="LOGO" xmlns="http://www.w3.org/2000/svg" xmlns:xlink="http://www.w3.org/1999/xlink" x="0px" y="0px"
	 viewBox="0 0 513.86 209.75" style="enable-background:new 0 0 513.86 209.75;" xml:space="preserve">
<style type="text/css">
	.st0{fill:#CC283B;}
	.st1{fill:none;}
	.st2{fill:#FFFFFF;}
</style>
<g>
	<path class="st0" d="M450.97,131.85c-1.49,0-2.95,0.08-4.41,0.2c1.44-5.77,2.21-11.8,2.21-18.01c0-40.95-33.2-74.15-74.15-74.15
		c-16.12,0-31.03,5.16-43.19,13.9c-18.29-28.73-53-47.47-99.02-45.14c-37.81,1.92-70.75,21.84-87.69,52.36
		c-25.88,5-45.16,24.32-45.16,47.41c0,1.28,0.08,2.54,0.19,3.8c-0.02,0.39-0.06,0.78-0.06,1.18c0,2.51,0.35,4.94,0.96,7.27
		c-21.61,2.49-30.89,10.83-40.97,29.03c-1.71-0.16-12.66,3.87-14.35,4.33c-24.69,6.62-36.05,24.34-36.05,54.37h491.34
		c3.03-6.77,4.73-14.27,4.73-22.16C505.34,156.19,481,131.85,450.97,131.85z"/>
	<g>
		<path class="st1" d="M289.73,142.75l-8.51-11.33l-0.32,4.11l-3.55,1.53l1.04,3.55l-3.42,1.44l1.18,3.22l-3.53,2.87l14.06,0.46
			l1.52-2.93L289.73,142.75z M286.25,146.82c0,0-0.12-0.01-0.34-0.03c-0.11-0.01-0.24-0.02-0.38-0.03c-0.15-0.01-0.32-0.03-0.5-0.05
			c-0.18-0.02-0.38-0.04-0.59-0.06c-0.21-0.02-0.43-0.04-0.66-0.06c-0.23-0.02-0.46-0.05-0.7-0.07c-0.24-0.03-0.48-0.05-0.72-0.08
			c-0.24-0.03-0.49-0.05-0.73-0.07c-0.24-0.02-0.48-0.04-0.7-0.07c-0.23-0.03-0.44-0.07-0.65-0.11c-0.1-0.02-0.2-0.04-0.3-0.06
			c-0.1-0.02-0.19-0.04-0.28-0.06c-0.36-0.09-0.65-0.17-0.86-0.24c-0.05-0.02-0.1-0.03-0.14-0.05c-0.04-0.01-0.07-0.03-0.1-0.04
			c-0.05-0.02-0.08-0.03-0.08-0.03l0.2-0.06c0.04,0,0.09,0,0.14-0.01c0.22-0.01,0.52-0.01,0.89,0.01c0.09,0,0.19,0.01,0.29,0.02
			c0.1,0.01,0.2,0.01,0.31,0.02c0.21,0.02,0.43,0.04,0.65,0.08c0.23,0.03,0.46,0.08,0.69,0.13c0.24,0.05,0.48,0.09,0.72,0.14
			c0.24,0.04,0.48,0.09,0.72,0.13c0.24,0.04,0.47,0.09,0.69,0.13c0.23,0.04,0.44,0.08,0.65,0.12c0.21,0.04,0.4,0.08,0.58,0.11
			c0.18,0.04,0.34,0.07,0.49,0.1c0.15,0.03,0.27,0.05,0.38,0.08c0.21,0.04,0.33,0.07,0.33,0.07L286.25,146.82z M286.57,144.9
			c0,0-0.11-0.05-0.31-0.14c-0.1-0.04-0.22-0.1-0.35-0.16c-0.14-0.06-0.29-0.13-0.46-0.21c-0.17-0.08-0.35-0.16-0.54-0.25
			c-0.19-0.09-0.39-0.18-0.6-0.28c-0.21-0.1-0.42-0.2-0.64-0.3c-0.22-0.1-0.44-0.21-0.66-0.31c-0.22-0.1-0.44-0.21-0.66-0.31
			c-0.22-0.1-0.43-0.2-0.64-0.3c-0.2-0.1-0.4-0.21-0.58-0.32c-0.09-0.05-0.18-0.11-0.26-0.16c-0.08-0.05-0.17-0.1-0.24-0.15
			c-0.31-0.2-0.56-0.38-0.73-0.51c-0.04-0.03-0.08-0.06-0.11-0.09c-0.03-0.03-0.06-0.05-0.08-0.07c-0.05-0.04-0.07-0.06-0.07-0.06
			l0.02-0.05c0,0,0.03,0.01,0.09,0.02c0.03,0.01,0.06,0.02,0.1,0.03c0.04,0.01,0.09,0.03,0.14,0.04c0.21,0.07,0.5,0.17,0.84,0.31
			c0.09,0.03,0.17,0.07,0.26,0.11c0.09,0.04,0.18,0.08,0.28,0.12c0.19,0.09,0.39,0.18,0.59,0.29c0.2,0.11,0.41,0.23,0.61,0.35
			c0.21,0.12,0.42,0.25,0.63,0.37c0.21,0.12,0.42,0.24,0.63,0.36c0.21,0.12,0.41,0.24,0.61,0.35c0.2,0.11,0.39,0.23,0.57,0.33
			c0.18,0.11,0.35,0.21,0.51,0.3c0.16,0.09,0.3,0.18,0.43,0.25c0.13,0.08,0.24,0.14,0.33,0.2c0.18,0.11,0.29,0.17,0.29,0.17
			L286.57,144.9z M287.33,143.17c0,0-0.08-0.09-0.23-0.25c-0.07-0.08-0.16-0.18-0.26-0.29c-0.1-0.11-0.21-0.24-0.33-0.37
			c-0.12-0.14-0.25-0.28-0.39-0.44c-0.14-0.16-0.29-0.32-0.44-0.49c-0.15-0.17-0.31-0.35-0.47-0.53c-0.16-0.18-0.32-0.36-0.48-0.55
			c-0.16-0.18-0.32-0.37-0.49-0.54c-0.16-0.18-0.32-0.35-0.47-0.53c-0.14-0.18-0.28-0.35-0.4-0.52c-0.06-0.08-0.12-0.17-0.18-0.25
			c-0.06-0.08-0.11-0.16-0.16-0.24c-0.2-0.31-0.36-0.57-0.47-0.76c-0.03-0.05-0.05-0.09-0.07-0.13c-0.02-0.04-0.04-0.07-0.05-0.1
			c-0.03-0.05-0.04-0.08-0.04-0.08l0.19,0.09c0.03,0.03,0.07,0.06,0.11,0.09c0.16,0.14,0.39,0.35,0.65,0.62
			c0.06,0.07,0.13,0.14,0.2,0.21c0.07,0.07,0.14,0.15,0.21,0.23c0.14,0.15,0.29,0.32,0.43,0.5c0.14,0.18,0.28,0.37,0.42,0.56
			c0.14,0.2,0.29,0.39,0.43,0.59c0.15,0.2,0.29,0.39,0.44,0.58c0.15,0.19,0.29,0.38,0.42,0.57c0.14,0.18,0.27,0.36,0.39,0.53
			c0.12,0.17,0.24,0.33,0.35,0.48c0.11,0.15,0.21,0.28,0.29,0.4c0.09,0.12,0.16,0.23,0.23,0.31c0.13,0.17,0.2,0.27,0.2,0.27
			L287.33,143.17z"/>
		<path class="st1" d="M294.94,134.36l-0.82-1.77l-6.18,2.86l0.82,1.77c0.72,1.56,2.69,2.18,4.4,1.39
			C294.86,137.83,295.66,135.92,294.94,134.36z"/>
		<path class="st1" d="M287.52,134.27l2.99-1.39l2.99-1.39l0.18-14.17l-2.76,3.05l-3.74-0.95l-1.34,3.45l-3.58-0.95l-1.04,3.27
			l-4.55,0.12L287.52,134.27z M290.98,124.37c0-0.1,0.01-0.21,0.01-0.31c0.01-0.1,0.01-0.19,0.02-0.29
			c0.02-0.37,0.06-0.67,0.09-0.89c0.01-0.05,0.02-0.1,0.02-0.14c0.01-0.04,0.01-0.08,0.02-0.11c0.01-0.06,0.02-0.09,0.02-0.09
			l0.1,0.19c0.01,0.04,0.02,0.09,0.03,0.14c0.04,0.21,0.09,0.52,0.14,0.88c0.01,0.09,0.02,0.19,0.03,0.28
			c0.01,0.1,0.02,0.2,0.03,0.3c0.02,0.21,0.03,0.43,0.03,0.66c0,0.23,0,0.47-0.01,0.71c-0.01,0.24-0.01,0.48-0.02,0.73
			c0,0.24,0,0.49-0.01,0.73c0,0.24-0.01,0.48-0.01,0.71c0,0.23-0.01,0.45-0.01,0.66c0,0.21-0.01,0.41-0.01,0.59
			c-0.01,0.18-0.01,0.35-0.01,0.5c0,0.15-0.01,0.28-0.01,0.39c-0.01,0.21-0.01,0.34-0.01,0.34l-0.05,0c0,0-0.01-0.12-0.03-0.33
			c-0.01-0.11-0.02-0.24-0.03-0.38c-0.01-0.15-0.02-0.32-0.04-0.5c-0.01-0.18-0.03-0.38-0.04-0.59c-0.01-0.21-0.03-0.43-0.05-0.66
			c-0.02-0.23-0.03-0.46-0.05-0.7c-0.01-0.24-0.03-0.48-0.04-0.73c-0.01-0.24-0.03-0.49-0.05-0.73c-0.02-0.24-0.04-0.48-0.04-0.7
			C290.97,124.8,290.97,124.58,290.98,124.37z M286.46,124.15c0,0,0.02,0.02,0.05,0.07c0.02,0.02,0.04,0.05,0.06,0.09
			c0.02,0.03,0.05,0.07,0.08,0.12c0.12,0.18,0.29,0.44,0.47,0.75c0.05,0.08,0.09,0.16,0.14,0.25c0.05,0.09,0.1,0.18,0.15,0.27
			c0.1,0.19,0.2,0.38,0.29,0.59c0.09,0.21,0.18,0.43,0.27,0.65c0.09,0.22,0.18,0.45,0.27,0.68c0.09,0.22,0.19,0.45,0.28,0.67
			c0.09,0.22,0.18,0.44,0.27,0.65c0.09,0.21,0.17,0.42,0.25,0.61c0.08,0.19,0.15,0.38,0.22,0.55c0.07,0.17,0.13,0.33,0.19,0.46
			c0.06,0.14,0.1,0.26,0.14,0.36c0.08,0.2,0.12,0.31,0.12,0.31l-0.05,0.02c0,0-0.06-0.11-0.16-0.3c-0.05-0.09-0.11-0.21-0.18-0.34
			c-0.07-0.13-0.15-0.28-0.23-0.44c-0.08-0.16-0.18-0.34-0.27-0.52c-0.1-0.19-0.2-0.38-0.3-0.59c-0.1-0.2-0.21-0.41-0.32-0.63
			c-0.11-0.21-0.22-0.43-0.33-0.65c-0.11-0.22-0.22-0.43-0.34-0.65c-0.11-0.21-0.22-0.42-0.32-0.63c-0.1-0.21-0.18-0.41-0.26-0.61
			c-0.04-0.1-0.08-0.19-0.11-0.29c-0.03-0.09-0.07-0.18-0.1-0.27c-0.12-0.35-0.21-0.64-0.27-0.85c-0.01-0.05-0.03-0.1-0.04-0.14
			c-0.01-0.04-0.02-0.08-0.03-0.1c-0.01-0.06-0.02-0.09-0.02-0.09L286.46,124.15z M283.03,127.07c0.03,0.02,0.07,0.05,0.12,0.08
			c0.18,0.13,0.42,0.32,0.7,0.56c0.07,0.06,0.14,0.12,0.22,0.19c0.07,0.07,0.15,0.13,0.23,0.21c0.15,0.14,0.31,0.3,0.47,0.46
			c0.16,0.17,0.31,0.34,0.47,0.52c0.16,0.18,0.32,0.37,0.48,0.55c0.16,0.18,0.33,0.36,0.49,0.54c0.16,0.18,0.32,0.36,0.47,0.53
			c0.15,0.17,0.3,0.34,0.44,0.49c0.14,0.16,0.27,0.31,0.39,0.44c0.12,0.14,0.23,0.26,0.33,0.38c0.1,0.11,0.18,0.21,0.25,0.29
			c0.14,0.16,0.22,0.25,0.22,0.25l-0.04,0.04c0,0-0.09-0.08-0.25-0.23c-0.08-0.07-0.17-0.16-0.28-0.26
			c-0.11-0.1-0.23-0.22-0.37-0.34c-0.13-0.12-0.28-0.26-0.43-0.4c-0.15-0.14-0.31-0.3-0.48-0.45c-0.17-0.16-0.34-0.32-0.51-0.49
			c-0.17-0.17-0.35-0.34-0.53-0.5c-0.18-0.17-0.36-0.34-0.53-0.5c-0.18-0.16-0.35-0.32-0.51-0.49c-0.16-0.16-0.31-0.33-0.45-0.49
			c-0.07-0.08-0.13-0.16-0.2-0.23c-0.06-0.08-0.12-0.15-0.18-0.22c-0.23-0.29-0.41-0.53-0.53-0.71c-0.03-0.04-0.06-0.09-0.08-0.12
			c-0.02-0.04-0.04-0.06-0.06-0.09c-0.03-0.05-0.05-0.08-0.05-0.08L283.03,127.07z"/>
		<polygon class="st1" points="189.92,166.82 189.92,155.8 183.18,155.8 184.11,174.35 173.76,187.04 181.67,187.04 206.78,155.8 
			198.65,155.8 		"/>
		<path class="st1" d="M154.58,158.2c-1.4-1.55-3.72-2.39-5.7-2.39h-12.09l-5.12,12.92l-2.9,7.3l-0.69,1.8h8.09
			c0,0,8.07-20.58,8.19-20.58c0.93,0.12,1.74,0.48,2.32,0.96c1.51,1.19,1.63,2.93,0.46,6.1l-5.28,13.52h8.02l5.4-13.52
			C156.32,161.55,155.74,159.51,154.58,158.2z"/>
		<circle class="st1" cx="145.24" cy="104.43" r="3.73"/>
		<path class="st1" d="M152.71,108.65c2.06,0,3.73-1.67,3.73-3.73c0-2.06-1.67-3.73-3.73-3.73c-2.06,0-3.73,1.67-3.73,3.73
			C148.98,106.97,150.65,108.65,152.71,108.65z"/>
		<path class="st1" d="M276.63,106.42c-2.52-1.57-4.57-3.85-7.37-4.97c-1.09-0.44-1.86-1.58-3.05-1.65c-1.75-0.1-3.4-0.67-5.06-1.04
			c-4.01-0.9-7.92-0.35-11.84,0.25l-9.63,2.75c-0.88,0.17-1.08,0-1.21-0.84c-0.23-1.47-0.01-2.91,0.04-4.36
			c0.09-2.63-0.49-5.26-0.02-7.9c0.04-0.22-0.08-0.66,0.15-0.59c1.12,0.33,1.45-0.79,2.2-1.14c1.86-0.86,3.95-0.91,5.77-1.98
			c2.2-1.29,4.79-1.16,7.2-0.85c1.26,0.16,2.66-0.31,3.65,0.21c1.43,0.74,2.07-0.99,3.22-0.57c0.05-0.18,0.18-0.39,0.14-0.54
			c-0.41-1.37-0.04-2.94-1.01-4.17c-1.91-2.43-4.4-4.29-6.52-6.52c-1.14-1.19-2.71-0.93-4.12,0.09c-1.69,1.22-3.52,2.27-5.55,2.75
			c-2.07,0.49-4.26,0.51-6.31,0.97c-2.6,0.59-5.09,1.56-7.82,1.87c-3.03,0.34-5.99,1.12-9.09,0.77c-1.41-0.16-2.83,1.86-2.16,3.1
			c1.22,2.23,2.58,4.4,3.99,6.51c0.67,1,1.72,0.94,2.74,0.39c1.19-0.65,2.43-1.17,3.92-1.62c-0.44,1.2-1.33,1.63-2.11,2.11
			c-2.4,1.48-4.73,3.03-6.78,4.99c-1.72,1.65-3.37,3.38-5.24,4.84c-1.8,1.41-3.33,3.11-5.08,4.55c-1.33,1.1-2.45,2.36-3.49,3.77
			c-0.65,0.88-1.88,1.36-2.4,2.51c-1.13,2.53-2.67,4.93-2.8,7.8c-0.08,1.72,0.62,3.35,1.31,4.85c1.8,3.89,4.53,7.18,7.23,10.47
			c0.23,0.29,0.58,0.49,0.91,0.69c0.76,0.47,1.36,0.71,1.85-0.47c0.28-0.68,0.58-1.43,1.47-1.91c0.7-0.38,0.07-1.53-0.36-2.2
			c-1.22-1.92-1.58-4-1.35-6.21c0.09-0.83,0.37-1.76,1.15-2c2.48-0.77,4.65-2.25,7.1-3.05c0.44-0.15,0.89-1.05,1.33-0.35
			c0.38,0.59,0.66,1.43,0.31,2.19c-0.22,0.48-0.62,0.86-0.89,1.32c-0.57,0.98-1.21,2.03-0.69,3.19c0.72,1.61,1.58,3.17,2.42,4.73
			c0.65,1.21,1.23,1.28,1.75,0.08c0.65-1.49,1.82-2.68,2.29-4.27c0.06-0.21,0.05-0.77,0.54-0.7c0.4,0.06,0.74,0.31,0.82,0.73
			c0.61,3.38,2.21,6.23,4.48,8.77c0.48,0.53,0.63,1.09-0.26,1.58c-1.09,0.59-2.03,1.47-3.13,2.06c-1.17,0.63-2.43,1.43-3.68,1.46
			c-1.16,0.03-1.57,0.49-2.29,1.17c-0.65,0.62-0.87,1.4-1.34,2.05c-1.32,1.82-0.34,6.73,1.48,8.1c0.86,0.65,1.26,0.11,2.09-0.34
			c2.02-1.11,4.44-1.42,6.55-2.49c0.23-0.12,0.6,0,0.55,0.43c-0.11,1.03,0.11,2.09-0.97,2.89c-0.6,0.44-1.25,0.67-1.87,0.99
			c-3.38,1.75-6.82,3.33-10.61,3.99c-1.31,0.23-2.35,1.61-1.85,2.61c1.13,2.26,2.43,4.44,3.64,6.66c0.23,0.41,0.42,0.14,0.68,0.08
			c1.13-0.26,2.25-0.47,3.02-1.51c0.21-0.28,0.77-0.33,0.76,0.34c-0.02,0.98-0.22,1.88-1.02,2.57c-1.89,1.61-3.59,3.41-5.29,5.21
			c-1.01,1.07-1.03,2.03-0.11,3.16c0.82,1.01,1.51,2.14,2.39,3.1c0.91,1,1.54,2.43,3.07,2.65c1.44,0.2,2.89,0.38,4.38,0.32
			c1.33-0.05,2.13-0.75,2.9-1.59c0.2-0.21,0.35-0.32,0.62-0.44c2.99-1.4,6.4-1.55,9.31-3.16c0.15-0.08,0.39,0.02,0.58-0.01
			c1.3-0.21,2.61-0.31,3.65-1.31c0.66-0.63,2.1-0.16,2.05,0.66c-0.1,1.71,0.16,3.52-0.88,5.05c-1.2,1.77-1.8,3.77-2.47,5.76
			c-0.17,0.52-0.24,1.06,0.06,1.25c0.39,0.24,0.99,0.05,1.31-0.4c0.56-0.78,1.38-1.18,2.19-1.59c0.85-0.43,1.72-0.77,2.24-1.68
			c0.23-0.4,0.68-0.82,0.97,0.07c0.14,0.43,0.55,0.49,0.97,0.46c1.99-0.15,3.15-1.92,4.91-2.51c0.02-0.01,0.01-0.1,0.03-0.14
			c1.36-1.75,2.53-3.55,3.01-5.8c0.42-1.93,0.48-3.64-0.57-5.44c-2.46-4.23-5.58-7.72-9.98-10.02c-1.96-1.03-1.99-1.35-0.9-3.16
			c0.15-0.25,0.41-0.35,0.67-0.49c1.49-0.84,2.94-1.76,4.43-2.62c1.68-0.97,1.84-2.37,0.56-3.76c-0.95-1.04-1.91-2.01-3.06-2.86
			c-1.13-0.84-2.3-1.07-3.6-1.03c-1.11,0.03-2.04,0.66-3.05,1.01c-1.02,0.36-1.2,0.06-1.21-0.95c-0.02-1.37,0.39-2.04,1.86-2.11
			c0.91-0.05,1.81-0.19,2.72-0.07c0.57,0.07,1.14-0.02,1.44-0.44c0.62-0.87,1.45-1.55,2.1-2.37c0.91-1.14,0.81-2.66-0.25-3.52
			c-0.93-0.76-1.94-1.43-2.94-2.1c-1-0.67-2.08-0.56-3.19-0.31c-1.28,0.29-2.57,0.51-3.77,1.09c-0.07-0.11-0.15-0.23-0.22-0.34
			c1.57-0.88,3.06-1.94,4.72-2.59c1.03-0.4,1.53-1.64,2.43-1.67c1.52-0.05,1.14-2.24,2.67-2.01c-0.89-1.56,0.79-0.87,1.18-1.17
			c0.48-0.37,1.23,0.22,1.87,0.4c-0.34,1.08,0.25,0.59,0.78,0.54c1.28-0.12,2.49-1.38,3.88-0.22c0.15,0.13,0.94-0.27,1.23-0.6
			c0.4-0.47,0.86-0.71,1.38-0.56c1.88,0.53,2.72-0.85,3.74-1.92c0.32-0.34,0.51-0.77,1.12-0.83c1.36-0.12,4.03-1.88,4.66-3
			c1.8-3.25,4.31-6.02,6.2-9.22C277.99,111.71,277.99,107.27,276.63,106.42z"/>
		<path class="st1" d="M130.78,132.09c0,0,0.62,0.48,1.99-1.27c1.63-2.08,6.76-7.99,6.76-7.99s0.82-0.91,1.51-0.68
			c0.06,0.02,0.26,0.12,0.32,0.15c0.62,0.38,0.43,1.6,0.43,1.6s-1.31,7.71-1.88,10.3c-0.48,2.17,0.29,2.35,0.29,2.35
			s1.72,0.55,2.71,0.49c0.99-0.06,1.46-3.24,1.46-3.24s1.29-6.12,2.76-10.66c0.09-0.27,0.17-0.53,0.25-0.8
			c-0.03,0.24-0.07,0.48-0.1,0.73c-0.62,4.73-2.06,10.82-2.06,10.82s-0.93,3.07-0.06,3.55s2.66,0.71,2.66,0.71s0.77,0.17,1.26-2
			c0.59-2.58,2.7-10.11,2.7-10.11s0.35-1.18,1.07-1.26c0.06-0.01,0.29-0.01,0.35,0c0.72,0.08,1.07,1.26,1.07,1.26
			s2.11,7.53,2.7,10.11c0.49,2.17,1.26,2,1.26,2s1.79-0.23,2.66-0.71s-0.06-3.55-0.06-3.55s-1.45-6.08-2.06-10.82
			c-0.1-0.8-0.21-1.55-0.31-2.3c0.24,0.76,0.49,1.54,0.75,2.36c1.46,4.55,2.76,10.66,2.76,10.66s0.48,3.17,1.46,3.24
			c0.99,0.06,2.71-0.49,2.71-0.49s0.77-0.18,0.29-2.35c-0.57-2.58-1.88-10.3-1.88-10.3s-0.18-1.22,0.43-1.6
			c0.05-0.03,0.26-0.13,0.32-0.15c0.69-0.24,1.51,0.68,1.51,0.68s5.13,5.91,6.76,7.99c1.37,1.75,1.99,1.27,1.99,1.27
			s1.52-0.97,2.1-1.78c0.58-0.8-1.57-3.19-1.57-3.19s-3.91-4.88-6.49-8.9c-1.81-2.81-3.03-4.05-3.85-5.6
			c1.16-0.24,2.36-0.52,3.58-0.82c0.1,0.1,0.2,0.19,0.29,0.26c0.24,0.18,0.55,0.21,0.81,0.06c0.22-0.13,0.44-0.23,0.66-0.32
			c0.62-0.24,1.12-0.34,1.88-0.46c0.34-0.05,0.65-0.14,0.93-0.26l2-0.88l0,0l0,0l0,0l1.81-0.73c0.41-0.18,0.59-0.66,0.41-1.06
			c-0.08-0.18-0.22-0.31-0.39-0.4c0.26-0.23,0.36-0.61,0.21-0.95c-0.11-0.25-0.33-0.41-0.57-0.47c0.12-0.22,0.15-0.49,0.04-0.74
			c-0.02-0.04-0.05-0.07-0.07-0.11c0.32-0.22,0.46-0.63,0.3-1c-0.09-0.2-0.25-0.36-0.46-0.44c-0.21-0.08-0.43-0.07-0.64,0.02
			l-3.85,1.21l0.76-1.89c0-0.01,0-0.01,0-0.02c0.12-1.06-0.19-1.38-0.47-1.46c-0.62-0.17-0.97,0.18-1.09,0.58l-0.75,1.22
			c-0.07,0.15-0.21,0.34-0.36,0.56c-0.34,0.49-0.76,1.09-0.94,1.83c-0.29,0.68-0.92,1.05-1.29,1.26c-0.04,0.02-0.07,0.04-0.11,0.06
			c-0.13,0.06-0.22,0.16-0.3,0.28c-9.49,2.32-17.01,2.66-22.57,2.23l-3.07-0.34c0,0-0.02,0.01-0.03,0.01
			c-5.86-0.83-8.81-2.4-8.88-2.44c-0.96-0.54-2.17-0.21-2.72,0.75c-0.55,0.96-0.21,2.18,0.75,2.73c0.24,0.14,3.03,1.67,8.42,2.65
			c-0.79,1.19-1.86,2.43-3.29,4.66c-2.58,4.02-6.49,8.9-6.49,8.9s-2.15,2.38-1.57,3.19C129.27,131.11,130.78,132.09,130.78,132.09z"
			/>
		<path class="st1" d="M129.58,166.82c1.4-4.07,1.16-7.18-0.82-9.1c-1.39-1.55-3.83-2.39-7.09-2.39h-0.93
			c-8.14,0.24-14.88,5.15-17.21,11.49c-2.21,6.34-0.47,11.36,7.56,11.96h2.21c6.63-0.36,12.78-4.29,15.57-10.4
			C129.1,167.9,129.38,167.48,129.58,166.82z"/>
		<path class="st1" d="M91.9,156.28c-2.19-0.47-4.61-0.59-7.14-0.48l7.14-18.07l0.23-0.72H81.2l-16.16,41.16h10.69
			c3.03,0.24,9.81,0.65,16.16-1.31c6.76-2.09,9.88-6.1,9.65-10.3C101.44,161.07,97.6,157.6,91.9,156.28z"/>
		<path class="st1" d="M100.74,137.02c-3.6,0-7.67,3.83-8.83,8.61v0.12c-0.47,1.8-0.47,3.59,0,4.91c0.59,2.15,2.21,3.59,4.42,3.59
			c3.71,0,7.67-3.95,8.95-8.62C106.44,140.85,104.46,137.02,100.74,137.02z"/>
		<path class="st1" d="M167.08,177.82h8.02l5.4-13.52c1.04-2.75,0.46-4.79-0.7-6.1c-1.4-1.55-3.72-2.39-5.7-2.39h-12.09l-5.12,12.92
			l-2.9,7.3l-0.7,1.8h8.09c0,0,8.07-20.58,8.19-20.58c0.93,0.12,1.74,0.48,2.32,0.96c1.51,1.19,1.63,2.93,0.47,6.1L167.08,177.82z"
			/>
		<path class="st1" d="M444.64,150.16c-2.68-0.98-5.28-2.17-7.97-3.07c-1.33-0.45-2.71-0.39-4.16,0.34c-1.99,1-3.79,2.39-5.99,2.99
			c-1.14,0.31-2.31,0.46-3.44,0.87c-2.56,0.92-5.15,1.84-7.85,2.27c-0.7,0.11-1.69,0.41-1.15-1.09c0.43-1.16,0.12-2.29-0.93-3.13
			c-0.95-0.76-0.51-1.24,0.41-1.45c1.15-0.27,2.17-0.87,3.3-1.22c2.18-0.68,4.06-2.04,6.08-3.07c1.6-0.81,1.73-1.53,0.74-3.08
			c-1.02-1.6-1.65-3.27-1.17-5.23c0.2-0.8-0.35-1.3-1.11-1.42c-0.62-0.1-1.3-0.21-1.88-0.05c-0.72,0.2-0.68-0.05-0.68-0.6
			c0.01-1.8,2.04-4.68,3.78-5.02c2.18-0.41,3.69-1.82,5.14-3.27c0.75-0.75,0.96-1.81,0.07-2.7c-0.89-0.9-1.14-1.93-0.96-3.17
			c0.2-1.43-0.73-2.49-2.18-2.36c-1.17,0.1-2-0.31-2.26-1.32c-0.25-0.98,0.68-1.49,1.42-1.89c1.55-0.83,3.14-1.58,4.71-2.37
			c1.84-0.93,2.9-3.36,2.03-4.93c-0.41-0.75-0.62-1.43-0.62-2.29c-0.01-2.34-1.96-3.69-4.18-3.01c-0.7,0.22-1.4,0.23-2.13,0.17
			c-0.96-0.08-1.23-0.75-1.23-1.47c0.01-1.81,1.03-3.2,2.51-3.97c1.52-0.79,2.81-1.88,4.29-2.67c1.07-0.57,1.76-1.6,2.85-2.08
			c0.87-0.38,1.37-1.51,0.83-2.29c-1.06-1.54-1.86-3.26-3.24-4.58c-1.02-0.98-3.99-1.44-4.76-0.52c-0.8,0.97-1.87,1.46-2.87,2.1
			c-1.25,0.8-2.13,0.52-2.83-0.81c-0.41-0.78-0.46-1.54-0.32-2.39c0.07-0.44,0.33-0.92-0.37-1.36c-1.27-0.79-2.3-1.84-3.85-2.28
			c-2.24-0.63-4.29-0.93-6.17,0.81c-2.43,2.24-5.62,3.5-7.78,6.15c0.29-0.51,0.14-1.18,0.44-1.5c2.23-2.44,1.28-5.35,1.26-8.1
			c-0.02-2.23-0.49-4.46-0.33-6.71c0.03-0.39,0.82-0.79,0.04-1.16c-0.58-0.27-1.12,0.07-1.37,0.54c-0.8,1.48-2.17,2.74-1.98,4.64
			c0.07,0.67-0.24,1.31-0.58,1.73c-0.67,0.81-0.76,1.84-1.3,2.64c-0.81,1.21-1,2.71-2.04,3.82c-1.82,1.94-3.52,3.98-5.27,5.99
			c-0.9,1.04-1.85,2.05-2.8,3.04c-0.61,0.64-1.15,1.06-1.22,2.03c-0.25,3.53,1.29,6.3,3.66,8.68c0.48,0.48,1.3,1,2.05,0.36
			c0.94-0.8,2-1.57,2.66-2.58c0.93-1.41,2.22-2.57,2.82-4.2c0.17-0.46,0.59-1.11,1.19-0.76c0.42,0.24,0.17,0.93,0.03,1.34
			c-0.52,1.57-1.19,3.09-1.69,4.66c-0.59,1.84-1.5,3.58-2.04,5.41c-1.04,3.56-1.79,7.23-2.67,10.83c-0.9,3.67-1.09,7.41-1.97,11.03
			c-0.46,1.87-0.45,3.54-0.06,5.54c0.64,3.28,2.28,5.65,4.38,7.93c0.56,0.61,1.17,0.67,1.6-0.2c0.33-0.67,0.58-1.39,0.99-2
			c1.42-2.12,1.97-4.5,2.16-6.99c0.19-2.45,0.16-4.91,0.07-7.37c-0.09-2.6,0.21-5.2,0.27-7.8c0.1-4.03,0.4-8.1,1.38-12.06
			c0.28-1.15,0.58-2.09,2.08-1.4c0.29,0.13,0.68,0.11,1.01,0.07c2.37-0.31,4.75-0.01,7.16-0.55c2.6-0.59,2.65-0.27,2.94,2.18
			c0.12,0.96-0.33,1.76-1.03,2.06c-1.65,0.7-2.61,2.26-4.24,3.04c-1.73,0.83-3.33,1.85-5.28,2.08c-0.94,0.11-1.3,0.86-0.83,1.69
			c0.66,1.16,4.84,3.17,6.18,2.83c0.68-0.17,0.87,0.28,1.19,0.57c0.36,0.33,0.4,0.8,0.08,1.19c-1.75,2.13-3.37,4.43-6.24,5.21
			c-0.34,0.09-0.45,0.17-0.54,0.5c-0.77,2.85,1.56,6.51,4.46,6.9c0.51,0.07,0.98,0.17,0.76,0.72c-0.27,0.68-0.41,1.39-0.89,2.04
			c-0.85,1.15-2.06,1.72-3.22,2.3c-1.41,0.7-2.8,1.67-4.54,1.37c-0.8-0.14-0.98,0.34-1.06,1.02c-0.17,1.5,0.15,2.96,0.28,4.43
			c0.08,0.87,0.06,1.61-0.78,2.12c-1.19,0.72-2.29,1.67-3.56,2.15c-2.57,0.97-4.74,2.62-7.07,3.95c-3.56,2.02-7.22,3.91-10.55,6.31
			c-2.62,1.89-5.64,2.98-8.74,3.34c-1.85,0.21-3.11,1-4.46,1.96c-0.68,0.48-1.29,1.15-1.44,1.92c-0.27,1.37-0.55,2.71-0.95,4.06
			c-0.94,3.2,0.02,4.74,3.23,4.84c2.04,0.06,3.9-1.24,6.01-1.12c0.46,0.03,0.91-0.25,1.31-0.58c0.33-0.27,0.74-0.41,1.21-0.41
			c3.67-0.03,7.21-0.77,10.71-1.85c1.18-0.36,2.33-0.86,3.69-0.83c2.36,0.04,4.74-0.19,7.07-0.55c1.42-0.22,2.74-1.02,4.16-1.32
			c1.61-0.34,3.32,0.01,4.94-0.48c0.49-0.15,1-0.3,1.55-0.19c0.44,0.08,0.62,0.16,0.66,0.69c0.2,2.25-0.06,4.48-0.37,6.68
			c-0.17,1.23-0.65,2.7-2.04,3.04c-1.86,0.45-3.8,0.68-5.7-0.1c-0.27-0.11-0.6-0.74-0.96-0.19c-0.25,0.38,0.07,0.73,0.34,1.03
			c0.08,0.09,0.05,0.27,0.07,0.42c-0.67,0.29-1.34,0.05-2.01,0.16c-3.13,0.5-6.27,1.01-9.45,0.77c-2.5-0.19-2.91-0.59-3.32-2.91
			c-0.06-0.33,0-0.68,0.04-1.02c0.04-0.37-0.1-0.54-0.47-0.54c-0.51,0-4.03,2.47-4.17,2.98c-1.07,3.88-1.77,7.75,0.21,11.59
			c0.63,1.23,1.43,2,2.91,2.17c1.87,0.22,3.39-0.91,5.14-1.04c1.5-0.11,2.7-0.89,3.86-1.78c0.44-0.34,0.98-0.36,0.83-1.24
			c-0.1-0.61,0.51-1.35,1.1-1.76c1.65-1.15,3.28-2.33,5.13-3.18c0.55-0.26,0.94-0.77,1.7-0.66c1.14,0.17,2.79,1.5,2.96,2.86
			c0.3,2.44,1.3,4.63,2.13,6.89c0.29,0.79,0.73,1.1,1.58,1.15c2.63,0.18,6.15-2.71,6.73-5.62c0.23-1.15,0.48-2.29,0.64-3.45
			c0.17-1.23,0.69-2.4,0.36-3.73c-0.17-0.69,0.13-1.73,0.82-2.08c2.42-1.23,4.79-2.64,7.54-3.08c0.85-0.14,1.7,0.07,2.57-0.15
			c2.79-0.71,4.7,0.62,5.27,3.41c0.24,1.17-0.67,1.82-0.92,2.72c-0.54,1.89-2.29,2.79-3.42,4.05c-1.02,1.13-2.64,2.29-4.34,2.87
			c-0.52,0.18-0.86,0.49-0.69,1.04c0.22,0.72,0.61-0.02,0.93,0.04c0.62,0.11,1.26,0.13,1.9,0.18c1.27,0.11,2.54,0.36,3.8,0.3
			c3.72-0.16,7.1-2.07,10.86-2.13c0.53-0.01,1.21-0.24,1.56-0.62c1.11-1.21,2.58-0.94,3.92-1.06c1.52-0.14,2.45-0.98,3.1-2.17
			c0.68-1.22,0.99-2.83-0.13-3.7c-1.42-1.11-2.39-2.74-4.18-3.47c-0.77-0.31-2.01-0.34-2.22-1.27c-0.18-0.79-0.65-0.99-1.14-1.31
			c-1.07-0.69-2.15-1.37-3.13-2.21c-0.55-0.46-1.07-1.03-1.89-1.21c-3-0.67-5.91-0.41-8.65,0.94c-3.07,1.51-6.27,2.53-9.64,3.07
			c-0.8,0.13-1.17-0.18-1.09-1.03c0.18-1.82,0.11-3.71,0.57-5.46c0.3-1.15-0.02-2.53,1.31-3.49c2.41-1.75,5.34-2.06,7.99-2.46
			c4-0.6,8.01-1.59,12.15-1.42c1.85,0.07,3.74,0,5.61,0.01c1.18,0,2.31,0.05,3.47,0.78c1.58,0.99,2.8-0.01,3.14-1.87
			c0.52-2.89-1.1-5.06-2.23-7.41C445.54,150.6,445.16,150.35,444.64,150.16z"/>
		<path class="st1" d="M335.38,128.74c0.77-2.02-0.4-4.34-2.61-5.18c-2.21-0.84-4.62,0.11-5.39,2.13l-0.87,2.29l8,3.05
			L335.38,128.74z"/>
		<path class="st1" d="M327.32,148.02l3.86-1.94l4.1,3.99l-1.47-17.62l-3.88-1.48l-3.88-1.48l-12.91,12.28l5.17-0.2l2.43,4.2
			l4.28-1.82L327.32,148.02z M331.16,139.06c0.03-0.3,0.05-0.61,0.07-0.91c0.02-0.31,0.04-0.61,0.06-0.91
			c0.02-0.3,0.04-0.6,0.06-0.89c0.02-0.29,0.04-0.56,0.06-0.83c0.02-0.26,0.04-0.51,0.06-0.74c0.02-0.23,0.03-0.44,0.05-0.63
			c0.02-0.19,0.03-0.35,0.04-0.48c0.02-0.27,0.04-0.42,0.04-0.42l0.06,0c0,0,0,0.15,0.01,0.42c0,0.13,0.01,0.3,0.01,0.48
			c0,0.19,0.01,0.4,0.02,0.63c0.01,0.23,0.01,0.48,0.02,0.74c0,0.26,0.01,0.54,0.01,0.83c0,0.29,0.01,0.59,0.01,0.89
			c0,0.3,0,0.61,0.01,0.92c0,0.31,0.01,0.61,0.02,0.92c0.01,0.3,0.02,0.6,0.01,0.89c-0.01,0.29-0.02,0.57-0.04,0.83
			c-0.01,0.13-0.02,0.26-0.03,0.38c-0.01,0.12-0.03,0.24-0.04,0.36c-0.05,0.46-0.12,0.84-0.17,1.11c-0.01,0.07-0.03,0.13-0.04,0.18
			c-0.01,0.05-0.02,0.1-0.03,0.13c-0.02,0.07-0.03,0.11-0.03,0.11l-0.11-0.25c-0.01-0.05-0.02-0.11-0.03-0.18
			c-0.04-0.27-0.08-0.65-0.11-1.12c-0.01-0.12-0.01-0.24-0.02-0.36c0-0.12-0.01-0.25-0.01-0.38c-0.01-0.26-0.01-0.54,0-0.83
			C331.11,139.66,331.13,139.36,331.16,139.06z M327.53,136.78c0.12-0.28,0.24-0.55,0.35-0.82c0.11-0.26,0.22-0.52,0.33-0.76
			c0.11-0.24,0.21-0.47,0.3-0.68c0.09-0.21,0.18-0.4,0.25-0.57c0.08-0.17,0.14-0.32,0.2-0.44c0.11-0.25,0.17-0.39,0.17-0.39
			l0.06,0.02c0,0-0.05,0.15-0.13,0.4c-0.04,0.13-0.09,0.28-0.15,0.46c-0.06,0.18-0.12,0.38-0.19,0.6c-0.07,0.22-0.15,0.46-0.23,0.71
			c-0.08,0.25-0.17,0.51-0.26,0.79c-0.09,0.27-0.18,0.56-0.28,0.84c-0.1,0.29-0.2,0.58-0.3,0.87c-0.1,0.29-0.19,0.58-0.28,0.87
			c-0.09,0.29-0.18,0.57-0.28,0.84c-0.1,0.27-0.21,0.53-0.32,0.77c-0.05,0.12-0.11,0.24-0.16,0.35c-0.05,0.11-0.1,0.22-0.16,0.32
			c-0.2,0.42-0.39,0.75-0.53,0.99c-0.03,0.06-0.07,0.11-0.09,0.16c-0.03,0.05-0.05,0.08-0.07,0.11c-0.04,0.06-0.06,0.09-0.06,0.09
			l-0.06-0.02c0,0,0-0.04,0.02-0.11c0.01-0.04,0.01-0.08,0.02-0.13c0.01-0.05,0.02-0.11,0.03-0.18c0.05-0.27,0.14-0.65,0.26-1.09
			c0.03-0.11,0.07-0.23,0.1-0.35c0.04-0.12,0.07-0.24,0.11-0.37c0.08-0.25,0.17-0.51,0.27-0.78c0.1-0.27,0.22-0.54,0.35-0.82
			c0.12-0.28,0.25-0.56,0.37-0.84C327.3,137.34,327.42,137.06,327.53,136.78z M324.28,135.43c-0.2,0.22-0.41,0.45-0.62,0.68
			c-0.21,0.23-0.41,0.46-0.61,0.69s-0.4,0.45-0.59,0.66c-0.2,0.21-0.4,0.4-0.6,0.58c-0.1,0.09-0.19,0.17-0.29,0.26
			c-0.09,0.08-0.18,0.16-0.27,0.24c-0.35,0.3-0.66,0.54-0.88,0.7c-0.05,0.04-0.11,0.08-0.15,0.11c-0.04,0.03-0.08,0.06-0.11,0.08
			c-0.06,0.04-0.09,0.06-0.09,0.06l0.09-0.25c0.03-0.04,0.06-0.1,0.1-0.15c0.15-0.22,0.38-0.54,0.67-0.9
			c0.07-0.09,0.15-0.18,0.23-0.28c0.08-0.09,0.16-0.19,0.25-0.29c0.17-0.2,0.36-0.4,0.56-0.61c0.2-0.2,0.42-0.41,0.64-0.61
			c0.22-0.2,0.45-0.41,0.67-0.62c0.22-0.21,0.44-0.42,0.66-0.63c0.22-0.21,0.43-0.41,0.64-0.61c0.21-0.2,0.41-0.39,0.6-0.57
			c0.19-0.18,0.38-0.35,0.54-0.51c0.17-0.16,0.32-0.3,0.46-0.43c0.14-0.13,0.26-0.24,0.36-0.33c0.2-0.18,0.31-0.29,0.31-0.29
			l0.05,0.05c0,0-0.1,0.12-0.28,0.32c-0.09,0.1-0.2,0.22-0.32,0.37c-0.12,0.14-0.26,0.3-0.42,0.47c-0.15,0.17-0.32,0.36-0.49,0.56
			c-0.18,0.2-0.36,0.4-0.55,0.62C324.69,134.99,324.49,135.21,324.28,135.43z"/>
		<path class="st1" d="M160.18,108.17c2.06,0,3.73-1.67,3.73-3.73c0-2.06-1.67-3.73-3.73-3.73c-2.06,0-3.73,1.67-3.73,3.73
			C156.45,106.5,158.12,108.17,160.18,108.17z"/>
		<path class="st1" d="M348.8,86.11c-0.34-0.29-0.76-0.48-1.34-0.51c-1.86-0.11-3.38,0.94-4.48,1.92
			c-3.34,2.97-7.07,5.51-10.17,8.73c-3.34,3.46-7.29,6.34-10.16,10.24c-1.46,1.99-3.53,3.3-5.03,5.22c-1.24,1.59-2.68,3.02-4.1,4.59
			c-0.18-0.56,0.03-5.62,0.19-6.24c0.57-2.22-0.33-4.21-2.46-5.13c-1.24-0.54-2.33-1.31-3.5-1.95c-0.92-0.51-1.82-1.19-2.92-1.12
			c-2.09,0.14-4.08,0.75-5.89,1.8c-0.55,0.32-1.07,0.59-1.67,0.79c-2.34,0.83-4.73,1.1-7.21,0.87c-1.08-0.1-2.84,1.35-2.56,2.19
			c0.47,1.43,0.74,3.11,2.16,3.97c2.03,1.23,3.14,3.28,4.61,4.98c1.42,1.65,4.03,2.72,6.08,1.98c0.68-0.25,1.73-0.5,1.71,0.74
			c-0.06,3.33,0.5,6.65,0.12,9.99c-0.11,0.93-0.85,1.59-1.11,2.25l-4.68,11.24c-0.23,1.29-0.03,2.37,0.17,2.92
			c0.22,0.61,0.25,0.75,0.4,1.35c1.05,3.97,0.76,7.48-0.73,8.77c-0.63-0.19-1.22-0.47-1.76-0.94c-1.61-1.41-3.52-2.25-5.41-3.16
			c-0.5-0.24-1.02-0.37-1.25-0.1c-0.29,0.36-0.17,0.98,0.24,1.35c0.71,0.65,1.01,1.51,1.31,2.37c0.32,0.9,0.56,1.81,1.4,2.43
			c0.1,0.07,0.19,0.16,0.26,0.25l-0.01,0.26c-0.06,0.06-0.16,0.22-0.21,0.38c-0.07,0.02-0.14,0.04-0.23,0.06
			c-0.44,0.08-0.55,0.48-0.58,0.91c-0.1,2,1.52,3.36,1.89,5.18c0.01,0.02,0.1,0.02,0.13,0.05c1.03,1.03,2.11,1.98,3.34,2.72
			c1.59,1.56,3.34,2.96,5.25,4.15c1.01,0.09,2.15-0.11,2.65,1.15c0.27-0.05,0.58,0.11,0.8-0.18c0.93-1.17,2.06-2.13,3.13-3.17
			c1.29-1.27,3.32-2.14,2.98-4.48c-0.18-1.28,0.18-2.46,0.4-3.68c0.1-0.57,0.35-1.12,0.36-1.69c0.13-4.25-0.1-8.52,0.89-12.72
			c0.09-0.37,0.2-0.88,0.03-1.15c-0.61-0.92-0.25-1.88-0.27-2.82c-0.01-0.36-0.01-0.36-0.19-1.06l0.04-0.69
			c0.17-2.5-0.3-4.49,0-6.79c0.27-2.12,0.23-4.43,1.93-5.87c1.12-0.95,1.65-2.22,2.58-3.25c1.1-1.22,1.55-2.91,2.73-4.18
			c1.19-1.28,2.08-2.84,3.08-4.29c1.41-2.05,3.7-3.19,5.18-5.21c1.22-1.66,3.17-2.65,4.51-4.32c2.67-3.31,6.17-5.56,10.18-7
			c0.32-0.12,0.85-0.34,0.9,0.22c0.08,1.09,0.28,2.28-0.05,3.26c-1.43,4.28-2.16,8.7-2.69,13.13c-1.07,8.91-1.54,17.87-1.7,26.84
			c-0.02,1,0.12,2.02,0.26,3.01c0.4,2.81-0.07,5.61-0.18,8.4c-0.13,3.19-0.8,6.36-1.3,9.53c-0.1,0.64-0.09,1.27-0.06,1.9
			c-2.33,0.52-4.37-0.73-6.41-1.14c-1.88-0.37-4.17-1.4-5.88-2.86c-0.53-0.45-1.07-0.62-1.57-0.08c-0.64,0.7,0.41,0.65,0.55,1.04
			c0.28,0.75,0.67,1.45,1.02,2.17c0.69,1.44,1.24,2.98,2.11,4.31c2.55,3.92,6.79,6.37,9.26,10.4c0.21,0.34,0.54,0.69,0.91,0.94
			c1.86,2.95,4.45,5.37,6.99,7.78c0.18,0.17,0.29,0.27,0.59,0.09c2.09-1.25,4.38-2.03,6.69-2.76c0.62-0.2,0.8-0.67,0.92-1.32
			c0.27-1.52-0.32-3.22,0.92-4.56c0.22-0.24,0-0.64-0.17-0.96c-0.21-0.38-0.45-0.79-0.5-1.2c-0.24-2.26-0.45-4.55-0.53-6.8
			c-0.16-4.88-0.19-9.82,0.41-14.65c0.3-2.48-0.05-4.75-0.35-7.07c-0.62-4.76-0.62-9.52-0.16-14.25c0.49-4.97,1.08-9.91,1.05-14.91
			c-0.01-1.52,0.64-3.05,0.06-4.57c-0.17-0.44-0.05-0.83-0.06-1.23c-0.05-1.25,0.74-2.34,0.68-3.49c-0.1-1.99-0.22-3.94-0.04-5.95
			c0.21-2.34,0.75-4.59,1.18-6.87c0.29-1.53,0.82-3.21,0.17-4.73C353.33,90.84,351.31,88.26,348.8,86.11z"/>
		<path class="st2" d="M411.21,87.56c-2.53,0.04-4.86,0.66-6.95,2.1c-0.39,0.27-0.89,0.61-1.02,1.01c-0.67,2.09-1.33,4.17-2.09,6.23
			c-0.26,0.7,0.18,1.11,0.96,1.09c1.13-0.12,2.07-0.68,2.88-1.43c1.81-1.68,3.86-3.03,5.94-4.31c1.93-1.19,2.08-1.63,1.08-3.76
			C411.83,88.1,411.96,87.55,411.21,87.56z"/>
		<path class="st2" d="M407.42,151.49c-0.06-0.71-0.85-1.31-1.56-1.19c-2.43,0.41-4.87,0.85-7.23,1.53
			c-2.92,0.84-5.53,2.48-8.37,3.58c-2.85,1.11-5.54,2.65-8.33,3.92c-1.1,0.5-2.07,1.13-3,1.95c1.74,1,3.5,0.53,5.22,0.35
			c3.38-0.35,6.54-1.66,9.91-2.13c3.69-0.52,7.24-1.72,10.76-2.89c1.31-0.44,3.16-0.74,2.86-2.97
			C407.58,152.94,407.48,152.21,407.42,151.49z"/>
		<path class="st2" d="M239.28,161.91c-2.07,1.92-3.74,4.26-5.96,6.02c-1.2,0.95-1.61,2.67-3.21,3.22c-0.1,0.03-0.14,0.34-0.14,0.52
			c0,0.24,0.19,0.31,0.4,0.26c1.41-0.31,2.88-0.46,4.21-0.97c3.06-1.18,6.06-2.51,9.06-3.83c0.46-0.2,0.91-0.56,1.1-1.12
			c-0.03-0.13-0.05-0.27-0.09-0.4c-0.39-1.16-1.36-1.95-1.89-3.05C242.24,161.47,240.11,161.15,239.28,161.91z"/>
		<path class="st2" d="M233.19,101.22c-0.28-2.3-0.15-4.59,0.14-6.89c0.08-0.66,0.21-1.55-0.34-1.88c-0.41-0.25-1.15,0.26-1.63,0.64
			c-2.87,2.28-5.79,4.52-8.57,6.91c-3.89,3.34-7.31,7.16-10.94,10.77c-0.68,0.67-1.12,1.63-1.55,2.57c-0.95,2.12-0.46,4.23-0.3,6.68
			c1.38-1.68,2.36-3.34,3.76-4.5c2.39-1.97,5.05-3.62,7.58-5.43c3.09-2.22,6.37-4.1,9.88-5.56
			C233.07,103.77,233.43,103.18,233.19,101.22z"/>
		<path class="st2" d="M231.5,111.21c-1.41,0.86-2.83,1.71-4.22,2.58c-0.25,0.16-0.8,0.5-0.4,0.73c1.71,0.99,1.48,2.42,1.11,3.95
			c-0.08,0.32,0.03,0.69,0.57,0.55c2.31-0.61,3.34-1.86,3.5-4.3c0.01-0.2,0.02-0.39,0.04-0.59c0,0,0.01,0,0.01,0
			c0.05-0.83,0.1-1.66,0.16-2.49C232.32,110.94,232.02,110.89,231.5,111.21z"/>
		<path class="st2" d="M238.99,112.87c0.43,0.21,0.9-0.22,1.37-0.46c2.53-1.32,5.12-2.52,7.71-3.72c0.47-0.22,1.02-0.41,0.86-0.98
			c-0.15-0.53-0.76-0.6-1.25-0.5c-1.65,0.35-3.33-0.08-4.98,0.2c-3.57,0.59-3.94,0.01-3.89,2.93c-0.03,0.48-0.09,0.78-0.06,1.07
			C238.83,111.91,238.42,112.59,238.99,112.87z"/>
		<path class="st2" d="M241.64,115.64c-1.33,1.05-3.59,1.25-3.51,3.62c0.04,1.18-0.28,2.3-0.38,3.45c-0.19,2.2-1.06,4.25-1.47,6.41
			c-0.23,1.21-0.11,2.75-1.21,3.77c-0.18,0.17-0.78,0.24-0.34,0.71c0.23,0.24,0.54,0.15,0.8-0.02c1.63-1.09,3.29-2.14,4.86-3.3
			c0.77-0.57,1.04-1.26,0.13-2.14c-1.53-1.48-2.36-3.25-1.93-5.5c0.17-0.89,0.54-1.63,0.94-2.41c0.89-1.74,2.3-3.12,3.34-4.8
			C242.27,115.13,241.87,115.46,241.64,115.64z"/>
		<path class="st2" d="M262.79,108.69c-1.19-0.17-2.43-0.05-3.39-0.56c-0.6,0.06-1.12-0.24-1.38,0.29
			c-0.97,1.94-2.49,3.37-4.03,4.86c-3.15,3.03-5.49,6.75-8.07,10.26c-0.21,0.28-1.07,0.53-0.4,1.11c0.44,0.38,1.06,0.63,1.59,0.21
			c0.53-0.41,1.13-0.58,1.71-0.54c1.08,0.08,1.97-0.31,2.91-0.74c1.67-0.78,2.86-2.14,4.28-3.23c3.4-2.63,5.19-6.41,7.33-9.95
			C263.79,109.67,263.98,108.86,262.79,108.69z"/>
		<path class="st2" d="M84.75,155.82l-0.75,1.9l-8.13,20.45c0.76-0.12,4.45-1.11,8.13-3.34c1.16-0.72,2.26-1.49,3.49-2.63
			C92.36,167.42,95.03,158.71,84.75,155.82z"/>
		<path class="st2" d="M119.57,159.04c-3.26,0-5.58,3.11-7.44,7.78c-1.86,4.67-0.7,7.42,0.81,7.77c1.68,0.24,4.87-0.36,7.43-5.74
			c0.35-0.6,0.59-1.32,0.83-2.03C122.72,162.39,122.37,159.04,119.57,159.04z"/>
		<path class="st2" d="M450.97,131.85c-1.49,0-2.95,0.08-4.41,0.2c1.44-5.77,2.21-11.8,2.21-18.01c0-40.95-33.2-74.15-74.15-74.15
			c-16.12,0-31.03,5.16-43.19,13.9c-18.29-28.73-53-47.47-99.02-45.14c-37.81,1.92-70.75,21.84-87.69,52.36
			c-25.88,5-45.16,24.32-45.16,47.41c0,1.28,0.08,2.54,0.19,3.8c-0.02,0.39-0.06,0.78-0.06,1.18c0,2.51,0.35,4.94,0.96,7.27
			c-21.61,2.49-30.89,10.83-40.97,29.03c-1.71-0.16-12.66,3.87-14.35,4.33c-24.69,6.62-36.05,24.34-36.05,54.37h491.34
			c3.03-6.77,4.73-14.27,4.73-22.16C505.34,156.19,481,131.85,450.97,131.85z M282.26,121.92l3.58,0.95l1.34-3.45l3.74,0.95
			l2.76-3.05l-0.18,14.17l-2.99,1.39l-2.99,1.39l-10.85-8.95l4.55-0.12L282.26,121.92z M293.16,138.62
			c-1.71,0.79-3.67,0.17-4.4-1.39l-0.82-1.77l6.18-2.86l0.82,1.77C295.66,135.92,294.86,137.83,293.16,138.62z M293.81,148.61
			c-0.87,1.67-2.81,2.38-4.33,1.59l-1.73-0.9l3.14-6.04l1.73,0.9C294.14,144.94,294.68,146.94,293.81,148.61z M160.18,100.7
			c2.06,0,3.73,1.67,3.73,3.73c0,2.06-1.67,3.73-3.73,3.73c-2.06,0-3.73-1.67-3.73-3.73C156.45,102.37,158.12,100.7,160.18,100.7z
			 M152.71,101.18c2.06,0,3.73,1.67,3.73,3.73c0,2.06-1.67,3.73-3.73,3.73c-2.06,0-3.73-1.67-3.73-3.73
			C148.98,102.85,150.65,101.18,152.71,101.18z M145.24,100.7c2.06,0,3.73,1.67,3.73,3.73c0,2.06-1.67,3.73-3.73,3.73
			c-2.06,0-3.73-1.67-3.73-3.73C141.51,102.37,143.18,100.7,145.24,100.7z M130.26,127.12c0,0,3.91-4.88,6.49-8.9
			c1.43-2.23,2.5-3.47,3.29-4.66c-5.39-0.99-8.18-2.52-8.42-2.65c-0.96-0.55-1.29-1.77-0.75-2.73c0.55-0.96,1.76-1.29,2.72-0.75
			c0.08,0.04,3.03,1.62,8.88,2.44c0.01,0,0.03,0,0.03-0.01l3.07,0.34c5.56,0.42,13.08,0.09,22.57-2.23c0.07-0.12,0.17-0.22,0.3-0.28
			c0.03-0.02,0.07-0.04,0.11-0.06c0.38-0.22,1-0.58,1.29-1.26c0.17-0.74,0.6-1.35,0.94-1.83c0.15-0.22,0.29-0.41,0.36-0.56
			l0.75-1.22c0.12-0.39,0.47-0.75,1.09-0.58c0.28,0.08,0.6,0.39,0.47,1.46c0,0.01,0,0.01,0,0.02l-0.76,1.89l3.85-1.21
			c0.2-0.09,0.43-0.1,0.64-0.02c0.21,0.08,0.37,0.23,0.46,0.44c0.16,0.37,0.02,0.77-0.3,1c0.02,0.04,0.05,0.07,0.07,0.11
			c0.11,0.25,0.08,0.52-0.04,0.74c0.25,0.06,0.46,0.22,0.57,0.47c0.15,0.34,0.05,0.72-0.21,0.95c0.17,0.08,0.31,0.22,0.39,0.4
			c0.18,0.41,0,0.88-0.41,1.06l-1.81,0.73l0,0l0,0l0,0l-2,0.88c-0.28,0.12-0.59,0.21-0.93,0.26c-0.76,0.11-1.26,0.22-1.88,0.46
			c-0.22,0.08-0.44,0.19-0.66,0.32c-0.25,0.15-0.57,0.12-0.81-0.06c-0.09-0.06-0.19-0.15-0.29-0.26c-1.22,0.3-2.42,0.58-3.58,0.82
			c0.83,1.55,2.04,2.79,3.85,5.6c2.58,4.02,6.49,8.9,6.49,8.9s2.15,2.38,1.57,3.19c-0.58,0.8-2.1,1.78-2.1,1.78
			s-0.62,0.48-1.99-1.27c-1.63-2.08-6.76-7.99-6.76-7.99s-0.82-0.91-1.51-0.68c-0.06,0.02-0.26,0.12-0.32,0.15
			c-0.62,0.38-0.43,1.6-0.43,1.6s1.31,7.71,1.88,10.3c0.48,2.17-0.29,2.35-0.29,2.35s-1.72,0.55-2.71,0.49
			c-0.99-0.06-1.46-3.24-1.46-3.24s-1.29-6.12-2.76-10.66c-0.26-0.82-0.51-1.6-0.75-2.36c0.1,0.74,0.21,1.5,0.31,2.3
			c0.62,4.73,2.06,10.82,2.06,10.82s0.93,3.07,0.06,3.55s-2.66,0.71-2.66,0.71s-0.77,0.17-1.26-2c-0.59-2.58-2.7-10.11-2.7-10.11
			s-0.35-1.18-1.07-1.26c-0.06-0.01-0.29-0.01-0.35,0c-0.72,0.08-1.07,1.26-1.07,1.26s-2.11,7.53-2.7,10.11
			c-0.49,2.17-1.26,2-1.26,2s-1.79-0.23-2.66-0.71s0.06-3.55,0.06-3.55s1.45-6.08,2.06-10.82c0.03-0.25,0.07-0.49,0.1-0.73
			c-0.08,0.27-0.17,0.53-0.25,0.8c-1.46,4.55-2.76,10.66-2.76,10.66s-0.48,3.17-1.46,3.24c-0.99,0.06-2.71-0.49-2.71-0.49
			s-0.77-0.18-0.29-2.35c0.57-2.58,1.88-10.3,1.88-10.3s0.18-1.22-0.43-1.6c-0.05-0.03-0.26-0.13-0.32-0.15
			c-0.69-0.24-1.51,0.68-1.51,0.68s-5.13,5.91-6.76,7.99c-1.37,1.75-1.99,1.27-1.99,1.27s-1.52-0.97-2.1-1.78
			C128.11,129.5,130.26,127.12,130.26,127.12z M91.9,176.87c-6.35,1.96-13.14,1.55-16.16,1.31H65.05l16.16-41.16h10.93l-0.23,0.72
			l-7.14,18.07c2.53-0.12,4.95,0.01,7.14,0.48c5.7,1.32,9.53,4.79,9.65,10.29C101.79,170.77,98.67,174.78,91.9,176.87z
			 M96.33,154.25c-2.21,0-3.84-1.43-4.42-3.59c-0.47-1.32-0.47-3.11,0-4.91v-0.12c1.16-4.78,5.23-8.61,8.83-8.61
			c3.72,0,5.7,3.83,4.54,8.61C104,150.3,100.04,154.25,96.33,154.25z M113.3,178.77h-2.21c-8.03-0.59-9.77-5.62-7.56-11.96
			c2.33-6.34,9.07-11.25,17.21-11.49h0.93c3.26,0,5.7,0.84,7.09,2.39c1.98,1.92,2.21,5.03,0.82,9.1c-0.2,0.66-0.47,1.08-0.7,1.56
			C126.08,174.48,119.93,178.42,113.3,178.77z M141.85,177.82l5.28-13.52c1.17-3.17,1.05-4.91-0.46-6.1
			c-0.58-0.48-1.39-0.83-2.32-0.96c-0.12,0-8.19,20.58-8.19,20.58h-8.09l0.69-1.8l2.9-7.3l5.12-12.92h12.09
			c1.98,0,4.3,0.84,5.7,2.39c1.16,1.32,1.74,3.35,0.69,6.1l-5.4,13.52H141.85z M171.9,158.2c-0.58-0.48-1.39-0.83-2.32-0.96
			c-0.12,0-8.19,20.58-8.19,20.58h-8.09l0.7-1.8l2.9-7.3l5.12-12.92h12.09c1.98,0,4.3,0.84,5.7,2.39c1.16,1.32,1.74,3.35,0.7,6.1
			l-5.4,13.52h-8.02l5.28-13.52C173.53,161.13,173.41,159.39,171.9,158.2z M181.67,187.04h-7.91l10.35-12.68l-0.93-18.55h6.74v11.01
			l8.73-11.01h8.14L181.67,187.04z M266.31,125.34c-0.6,0.05-0.79,0.49-1.12,0.83c-1.02,1.08-1.87,2.46-3.74,1.92
			c-0.52-0.15-0.98,0.09-1.38,0.56c-0.28,0.33-1.07,0.73-1.23,0.6c-1.4-1.16-2.61,0.1-3.88,0.22c-0.53,0.05-1.11,0.54-0.78-0.54
			c-0.63-0.18-1.38-0.77-1.87-0.4c-0.39,0.3-2.07-0.39-1.18,1.17c-1.52-0.24-1.15,1.96-2.67,2.01c-0.9,0.03-1.4,1.27-2.43,1.67
			c-1.66,0.65-3.15,1.7-4.72,2.59c0.07,0.11,0.15,0.23,0.22,0.34c1.21-0.58,2.5-0.8,3.77-1.09c1.12-0.25,2.2-0.36,3.19,0.31
			c1,0.67,2.01,1.34,2.94,2.1c1.06,0.87,1.16,2.39,0.25,3.52c-0.66,0.82-1.48,1.5-2.1,2.37c-0.3,0.41-0.87,0.51-1.44,0.44
			c-0.91-0.12-1.81,0.03-2.72,0.07c-1.47,0.08-1.88,0.74-1.86,2.11c0.01,1.02,0.2,1.31,1.21,0.95c1.01-0.35,1.94-0.98,3.05-1.01
			c1.3-0.04,2.47,0.19,3.6,1.03c1.14,0.85,2.1,1.82,3.06,2.86c1.28,1.39,1.12,2.79-0.56,3.76c-1.48,0.86-2.93,1.78-4.43,2.62
			c-0.25,0.14-0.51,0.24-0.67,0.49c-1.09,1.81-1.07,2.13,0.9,3.16c4.39,2.3,7.51,5.79,9.98,10.02c1.05,1.81,0.99,3.51,0.57,5.44
			c-0.49,2.25-1.65,4.05-3.01,5.8c-0.03,0.03-0.01,0.13-0.03,0.14c-1.76,0.59-2.92,2.37-4.91,2.51c-0.43,0.03-0.84-0.03-0.97-0.46
			c-0.29-0.9-0.74-0.48-0.97-0.07c-0.52,0.91-1.39,1.25-2.24,1.68c-0.81,0.41-1.63,0.81-2.19,1.59c-0.32,0.45-0.92,0.64-1.31,0.4
			c-0.3-0.19-0.23-0.73-0.06-1.25c0.67-1.99,1.27-3.99,2.47-5.76c1.04-1.54,0.78-3.34,0.88-5.05c0.05-0.81-1.4-1.29-2.05-0.66
			c-1.04,1-2.35,1.1-3.65,1.31c-0.19,0.03-0.43-0.07-0.58,0.01c-2.91,1.62-6.32,1.77-9.31,3.16c-0.27,0.12-0.42,0.23-0.62,0.44
			c-0.78,0.84-1.57,1.54-2.9,1.59c-1.49,0.06-2.93-0.11-4.38-0.32c-1.53-0.22-2.16-1.65-3.07-2.65c-0.88-0.96-1.56-2.09-2.39-3.1
			c-0.92-1.14-0.9-2.1,0.11-3.16c1.7-1.8,3.4-3.6,5.29-5.21c0.8-0.68,1.01-1.59,1.02-2.57c0.01-0.67-0.55-0.62-0.76-0.34
			c-0.77,1.04-1.89,1.25-3.02,1.51c-0.26,0.06-0.46,0.33-0.68-0.08c-1.21-2.22-2.51-4.4-3.64-6.66c-0.5-1,0.54-2.38,1.85-2.61
			c3.79-0.66,7.24-2.25,10.61-3.99c0.62-0.32,1.27-0.55,1.87-0.99c1.08-0.8,0.86-1.86,0.97-2.89c0.05-0.44-0.32-0.55-0.55-0.43
			c-2.11,1.06-4.52,1.38-6.55,2.49c-0.83,0.45-1.23,0.99-2.09,0.34c-1.83-1.37-2.81-6.28-1.48-8.1c0.48-0.66,0.69-1.43,1.34-2.05
			c0.71-0.68,1.13-1.13,2.29-1.17c1.24-0.04,2.51-0.84,3.68-1.46c1.1-0.59,2.04-1.46,3.13-2.06c0.9-0.49,0.74-1.05,0.26-1.58
			c-2.27-2.53-3.87-5.39-4.48-8.77c-0.08-0.42-0.42-0.68-0.82-0.73c-0.49-0.07-0.47,0.49-0.54,0.7c-0.47,1.59-1.64,2.78-2.29,4.27
			c-0.52,1.19-1.1,1.13-1.75-0.08c-0.84-1.56-1.69-3.12-2.42-4.73c-0.52-1.16,0.12-2.2,0.69-3.19c0.27-0.46,0.67-0.84,0.89-1.32
			c0.35-0.76,0.07-1.6-0.31-2.19c-0.44-0.69-0.89,0.21-1.33,0.35c-2.45,0.8-4.62,2.28-7.1,3.05c-0.78,0.24-1.06,1.18-1.15,2
			c-0.24,2.21,0.12,4.3,1.35,6.21c0.43,0.67,1.06,1.82,0.36,2.2c-0.89,0.48-1.19,1.23-1.47,1.91c-0.48,1.18-1.09,0.94-1.85,0.47
			c-0.32-0.2-0.67-0.4-0.91-0.69c-2.7-3.29-5.44-6.58-7.23-10.47c-0.69-1.5-1.39-3.14-1.31-4.85c0.14-2.86,1.67-5.27,2.8-7.8
			c0.52-1.15,1.75-1.63,2.4-2.51c1.04-1.41,2.16-2.67,3.49-3.77c1.76-1.45,3.28-3.14,5.08-4.55c1.87-1.46,3.52-3.2,5.24-4.84
			c2.05-1.96,4.39-3.51,6.78-4.99c0.78-0.48,1.68-0.92,2.11-2.11c-1.49,0.46-2.73,0.98-3.92,1.62c-1.02,0.55-2.08,0.6-2.74-0.39
			c-1.42-2.11-2.77-4.28-3.99-6.51c-0.68-1.23,0.75-3.26,2.16-3.1c3.1,0.35,6.06-0.43,9.09-0.77c2.73-0.3,5.21-1.28,7.82-1.87
			c2.04-0.46,4.24-0.48,6.31-0.97c2.03-0.48,3.86-1.53,5.55-2.75c1.41-1.02,2.99-1.28,4.12-0.09c2.13,2.22,4.61,4.09,6.52,6.52
			c0.97,1.23,0.6,2.8,1.01,4.17c0.05,0.15-0.09,0.36-0.14,0.54c-1.15-0.43-1.79,1.31-3.22,0.57c-0.99-0.51-2.39-0.05-3.65-0.21
			c-2.41-0.3-5-0.44-7.2,0.85c-1.82,1.07-3.91,1.12-5.77,1.98c-0.75,0.34-1.08,1.47-2.2,1.14c-0.23-0.07-0.11,0.37-0.15,0.59
			c-0.47,2.64,0.11,5.27,0.02,7.9c-0.05,1.45-0.27,2.9-0.04,4.36c0.13,0.84,0.33,1.01,1.21,0.84l9.63-2.75
			c3.92-0.6,7.82-1.14,11.84-0.25c1.66,0.37,3.31,0.94,5.06,1.04c1.19,0.07,1.96,1.21,3.05,1.65c2.8,1.12,4.85,3.39,7.37,4.97
			c1.36,0.85,1.37,5.28,0.54,6.69c-1.89,3.2-4.4,5.97-6.2,9.22C270.34,123.46,267.66,125.22,266.31,125.34z M272.63,148.14
			l3.53-2.87l-1.18-3.22l3.42-1.44l-1.04-3.55l3.55-1.53l0.32-4.11l8.51,11.33l-1.52,2.93l-1.52,2.93L272.63,148.14z M318.32,141.58
			l-5.17,0.2l12.91-12.28l3.88,1.48l3.88,1.48l1.47,17.62l-4.1-3.99l-3.86,1.94l-2.29-4.06l-4.28,1.82L318.32,141.58z
			 M326.51,127.98l0.87-2.29c0.77-2.02,3.18-2.97,5.39-2.13c2.21,0.84,3.38,3.16,2.61,5.18l-0.87,2.29L326.51,127.98z M354.46,98.6
			c-0.43,2.29-0.97,4.53-1.18,6.87c-0.18,2.01-0.06,3.96,0.04,5.95c0.06,1.15-0.73,2.24-0.68,3.49c0.02,0.4-0.11,0.8,0.06,1.23
			c0.58,1.52-0.06,3.04-0.06,4.57c0.03,5-0.56,9.95-1.05,14.91c-0.46,4.73-0.46,9.5,0.16,14.25c0.3,2.32,0.65,4.59,0.35,7.07
			c-0.59,4.83-0.56,9.77-0.41,14.65c0.07,2.25,0.29,4.54,0.53,6.8c0.04,0.41,0.29,0.82,0.5,1.2c0.17,0.32,0.38,0.72,0.17,0.96
			c-1.23,1.35-0.65,3.04-0.92,4.56c-0.12,0.66-0.3,1.13-0.92,1.32c-2.31,0.73-4.6,1.51-6.69,2.76c-0.3,0.18-0.41,0.07-0.59-0.09
			c-2.54-2.41-5.12-4.83-6.99-7.78c-0.37-0.25-0.7-0.6-0.91-0.94c-2.47-4.03-6.7-6.48-9.26-10.4c-0.87-1.33-1.41-2.87-2.11-4.31
			c-0.35-0.72-0.75-1.42-1.02-2.17c-0.14-0.39-1.18-0.34-0.55-1.04c0.49-0.54,1.04-0.37,1.57,0.08c1.71,1.46,4.01,2.49,5.88,2.86
			c2.04,0.41,4.08,1.66,6.41,1.14c-0.03-0.63-0.04-1.26,0.06-1.9c0.49-3.17,1.17-6.34,1.3-9.53c0.11-2.79,0.58-5.59,0.18-8.4
			c-0.14-1-0.28-2.01-0.26-3.01c0.16-8.97,0.63-17.94,1.7-26.84c0.53-4.42,1.26-8.85,2.69-13.13c0.33-0.99,0.13-2.18,0.05-3.26
			c-0.04-0.57-0.58-0.34-0.9-0.22c-4,1.44-7.5,3.7-10.18,7c-1.34,1.66-3.29,2.65-4.51,4.32c-1.48,2.02-3.78,3.16-5.18,5.21
			c-1,1.45-1.89,3.01-3.08,4.29c-1.18,1.27-1.63,2.96-2.73,4.18c-0.93,1.03-1.46,2.3-2.58,3.25c-1.7,1.44-1.66,3.75-1.93,5.87
			c-0.3,2.3,0.17,4.29,0,6.79l-0.04,0.69c0.18,0.7,0.18,0.7,0.19,1.06c0.02,0.94-0.34,1.9,0.27,2.82c0.17,0.26,0.06,0.78-0.03,1.15
			c-1,4.19-0.76,8.47-0.89,12.72c-0.02,0.57-0.26,1.12-0.36,1.69c-0.22,1.21-0.58,2.4-0.4,3.68c0.34,2.34-1.69,3.21-2.98,4.48
			c-1.06,1.04-2.2,2.01-3.13,3.17c-0.23,0.28-0.53,0.12-0.8,0.18c-0.5-1.26-1.64-1.06-2.65-1.15c-1.92-1.19-3.66-2.59-5.25-4.15
			c-1.23-0.74-2.31-1.69-3.34-2.72c-0.03-0.03-0.12-0.03-0.13-0.05c-0.37-1.82-1.99-3.18-1.89-5.18c0.02-0.43,0.14-0.83,0.58-0.91
			c0.09-0.02,0.17-0.04,0.23-0.06c0.05-0.16,0.15-0.31,0.21-0.38l0.01-0.26c-0.07-0.09-0.17-0.18-0.26-0.25
			c-0.84-0.62-1.07-1.53-1.4-2.43c-0.31-0.85-0.6-1.72-1.31-2.37c-0.41-0.37-0.53-0.99-0.24-1.35c0.22-0.28,0.75-0.14,1.25,0.1
			c1.9,0.91,3.81,1.75,5.41,3.16c0.53,0.47,1.13,0.75,1.76,0.94c1.49-1.29,1.78-4.81,0.73-8.77c-0.16-0.59-0.18-0.74-0.4-1.35
			c-0.2-0.55-0.4-1.63-0.17-2.92l4.68-11.24c0.27-0.65,1.01-1.31,1.11-2.25c0.38-3.34-0.18-6.66-0.12-9.99
			c0.02-1.23-1.02-0.98-1.71-0.74c-2.05,0.74-4.66-0.34-6.08-1.98c-1.47-1.7-2.57-3.75-4.61-4.98c-1.42-0.86-1.7-2.54-2.16-3.97
			c-0.28-0.85,1.48-2.3,2.56-2.19c2.47,0.24,4.86-0.04,7.21-0.87c0.59-0.21,1.12-0.48,1.67-0.79c1.81-1.06,3.8-1.66,5.89-1.8
			c1.1-0.07,2,0.61,2.92,1.12c1.17,0.65,2.26,1.42,3.5,1.95c2.13,0.92,3.03,2.91,2.46,5.13c-0.16,0.62-0.37,5.68-0.19,6.24
			c1.42-1.57,2.86-3,4.1-4.59c1.5-1.92,3.57-3.23,5.03-5.22c2.87-3.9,6.82-6.78,10.16-10.24c3.11-3.22,6.83-5.76,10.17-8.73
			c1.1-0.98,2.62-2.03,4.48-1.92c0.58,0.03,1,0.22,1.34,0.51c2.51,2.15,4.53,4.73,5.83,7.76C355.29,95.39,354.75,97.07,354.46,98.6z
			 M447.96,158.41c-0.34,1.86-1.55,2.86-3.14,1.87c-1.16-0.73-2.29-0.77-3.47-0.78c-1.87,0-3.76,0.07-5.61-0.01
			c-4.14-0.17-8.14,0.82-12.15,1.42c-2.65,0.4-5.57,0.7-7.99,2.46c-1.33,0.96-1.01,2.34-1.31,3.49c-0.45,1.75-0.38,3.63-0.57,5.46
			c-0.09,0.85,0.29,1.16,1.09,1.03c3.36-0.55,6.56-1.57,9.64-3.07c2.74-1.34,5.65-1.6,8.65-0.94c0.82,0.18,1.34,0.75,1.89,1.21
			c0.99,0.83,2.06,1.51,3.13,2.21c0.49,0.32,0.96,0.52,1.14,1.31c0.21,0.93,1.45,0.95,2.22,1.27c1.79,0.73,2.76,2.36,4.18,3.47
			c1.12,0.88,0.8,2.48,0.13,3.7c-0.65,1.19-1.58,2.03-3.1,2.17c-1.34,0.12-2.81-0.14-3.92,1.06c-0.35,0.37-1.03,0.61-1.56,0.62
			c-3.76,0.06-7.14,1.97-10.86,2.13c-1.26,0.06-2.53-0.19-3.8-0.3c-0.63-0.05-1.28-0.07-1.9-0.18c-0.32-0.06-0.71,0.67-0.93-0.04
			c-0.17-0.55,0.16-0.86,0.69-1.04c1.69-0.58,3.32-1.74,4.34-2.87c1.13-1.26,2.87-2.16,3.42-4.05c0.26-0.9,1.16-1.55,0.92-2.72
			c-0.57-2.79-2.48-4.12-5.27-3.41c-0.88,0.22-1.72,0.01-2.57,0.15c-2.76,0.44-5.12,1.85-7.54,3.08c-0.69,0.35-0.99,1.39-0.82,2.08
			c0.33,1.34-0.2,2.5-0.36,3.73c-0.16,1.16-0.41,2.3-0.64,3.45c-0.57,2.91-4.09,5.8-6.73,5.62c-0.85-0.06-1.29-0.36-1.58-1.15
			c-0.83-2.26-1.83-4.45-2.13-6.89c-0.17-1.36-1.81-2.69-2.96-2.86c-0.75-0.11-1.14,0.4-1.7,0.66c-1.84,0.85-3.48,2.03-5.13,3.18
			c-0.59,0.41-1.2,1.14-1.1,1.76c0.15,0.88-0.39,0.9-0.83,1.24c-1.16,0.89-2.36,1.67-3.86,1.78c-1.76,0.13-3.28,1.26-5.14,1.04
			c-1.47-0.17-2.27-0.94-2.91-2.17c-1.98-3.84-1.28-7.71-0.21-11.59c0.14-0.52,3.66-2.98,4.17-2.98c0.37,0,0.51,0.16,0.47,0.54
			c-0.04,0.34-0.1,0.69-0.04,1.02c0.41,2.32,0.82,2.72,3.32,2.91c3.19,0.24,6.33-0.28,9.45-0.77c0.67-0.11,1.34,0.13,2.01-0.16
			c-0.02-0.15,0.01-0.33-0.07-0.42c-0.27-0.3-0.58-0.65-0.34-1.03c0.36-0.55,0.69,0.08,0.96,0.19c1.9,0.79,3.84,0.56,5.7,0.1
			c1.39-0.34,1.87-1.81,2.04-3.04c0.31-2.2,0.57-4.43,0.37-6.68c-0.05-0.53-0.22-0.61-0.66-0.69c-0.56-0.11-1.06,0.04-1.55,0.19
			c-1.63,0.48-3.33,0.14-4.94,0.48c-1.42,0.3-2.74,1.1-4.16,1.32c-2.33,0.36-4.72,0.59-7.07,0.55c-1.36-0.02-2.51,0.47-3.69,0.83
			c-3.5,1.08-7.04,1.82-10.71,1.85c-0.47,0-0.88,0.14-1.21,0.41c-0.4,0.32-0.85,0.6-1.31,0.58c-2.11-0.12-3.97,1.18-6.01,1.12
			c-3.21-0.09-4.17-1.63-3.23-4.84c0.4-1.35,0.69-2.69,0.95-4.06c0.15-0.77,0.76-1.43,1.44-1.92c1.35-0.96,2.61-1.74,4.46-1.96
			c3.1-0.36,6.12-1.45,8.74-3.34c3.33-2.4,7-4.29,10.55-6.31c2.34-1.33,4.51-2.98,7.07-3.95c1.28-0.48,2.37-1.43,3.56-2.15
			c0.84-0.51,0.86-1.25,0.78-2.12c-0.14-1.47-0.45-2.93-0.28-4.43c0.08-0.68,0.25-1.16,1.06-1.02c1.74,0.3,3.13-0.67,4.54-1.37
			c1.16-0.58,2.37-1.14,3.22-2.3c0.48-0.65,0.62-1.36,0.89-2.04c0.22-0.56-0.24-0.65-0.76-0.72c-2.9-0.39-5.23-4.05-4.46-6.9
			c0.09-0.33,0.2-0.41,0.54-0.5c2.87-0.77,4.48-3.08,6.24-5.21c0.32-0.39,0.28-0.86-0.08-1.19c-0.32-0.3-0.52-0.74-1.19-0.57
			c-1.33,0.34-5.52-1.67-6.18-2.83c-0.47-0.83-0.11-1.58,0.83-1.69c1.95-0.23,3.56-1.25,5.28-2.08c1.63-0.78,2.59-2.34,4.24-3.04
			c0.7-0.3,1.15-1.1,1.03-2.06c-0.3-2.45-0.35-2.77-2.94-2.18c-2.41,0.55-4.79,0.24-7.16,0.55c-0.33,0.04-0.73,0.07-1.01-0.07
			c-1.5-0.69-1.79,0.24-2.08,1.4c-0.98,3.96-1.28,8.03-1.38,12.06c-0.07,2.6-0.37,5.2-0.27,7.8c0.09,2.46,0.12,4.92-0.07,7.37
			c-0.2,2.49-0.74,4.87-2.16,6.99c-0.41,0.61-0.66,1.33-0.99,2c-0.43,0.87-1.04,0.81-1.6,0.2c-2.1-2.28-3.74-4.65-4.38-7.93
			c-0.39-2-0.4-3.67,0.06-5.54c0.88-3.63,1.07-7.36,1.97-11.03c0.88-3.6,1.63-7.26,2.67-10.83c0.53-1.83,1.45-3.57,2.04-5.41
			c0.5-1.57,1.17-3.09,1.69-4.66c0.14-0.42,0.39-1.11-0.03-1.34c-0.6-0.34-1.02,0.31-1.19,0.76c-0.6,1.64-1.89,2.8-2.82,4.2
			c-0.66,1.01-1.71,1.78-2.66,2.58c-0.76,0.64-1.57,0.12-2.05-0.36c-2.37-2.38-3.91-5.14-3.66-8.68c0.07-0.97,0.61-1.39,1.22-2.03
			c0.94-0.99,1.89-2,2.8-3.04c1.75-2.01,3.45-4.05,5.27-5.99c1.04-1.11,1.23-2.61,2.04-3.82c0.54-0.8,0.63-1.84,1.3-2.64
			c0.34-0.42,0.65-1.06,0.58-1.73c-0.19-1.9,1.18-3.16,1.98-4.64c0.26-0.47,0.79-0.81,1.37-0.54c0.79,0.37-0.01,0.77-0.04,1.16
			c-0.16,2.25,0.31,4.47,0.33,6.71c0.02,2.75,0.97,5.66-1.26,8.1c-0.3,0.33-0.15,0.99-0.44,1.5c2.17-2.64,5.36-3.91,7.78-6.15
			c1.88-1.74,3.93-1.44,6.17-0.81c1.55,0.44,2.59,1.49,3.85,2.28c0.7,0.43,0.44,0.91,0.37,1.36c-0.14,0.85-0.09,1.61,0.32,2.39
			c0.7,1.33,1.58,1.61,2.83,0.81c1-0.64,2.06-1.13,2.87-2.1c0.77-0.92,3.74-0.46,4.76,0.52c1.38,1.32,2.18,3.04,3.24,4.58
			c0.54,0.79,0.04,1.92-0.83,2.29c-1.09,0.48-1.78,1.5-2.85,2.08c-1.48,0.79-2.77,1.88-4.29,2.67c-1.48,0.77-2.5,2.16-2.51,3.97
			c0,0.73,0.27,1.4,1.23,1.47c0.73,0.06,1.43,0.05,2.13-0.17c2.22-0.69,4.18,0.67,4.18,3.01c0,0.86,0.2,1.55,0.62,2.29
			c0.87,1.57-0.18,4-2.03,4.93c-1.57,0.79-3.16,1.54-4.71,2.37c-0.74,0.4-1.68,0.91-1.42,1.89c0.26,1.01,1.09,1.42,2.26,1.32
			c1.45-0.13,2.39,0.92,2.18,2.36c-0.18,1.24,0.06,2.27,0.96,3.17c0.89,0.9,0.68,1.95-0.07,2.7c-1.46,1.45-2.96,2.85-5.14,3.27
			c-1.74,0.33-3.77,3.22-3.78,5.02c0,0.55-0.04,0.8,0.68,0.6c0.58-0.16,1.26-0.05,1.88,0.05c0.76,0.12,1.31,0.61,1.11,1.42
			c-0.49,1.96,0.14,3.63,1.17,5.23c0.99,1.55,0.86,2.26-0.74,3.08c-2.03,1.03-3.9,2.39-6.08,3.07c-1.13,0.35-2.14,0.95-3.3,1.22
			c-0.92,0.21-1.36,0.69-0.41,1.45c1.05,0.84,1.35,1.97,0.93,3.13c-0.55,1.5,0.45,1.2,1.15,1.09c2.71-0.43,5.29-1.35,7.85-2.27
			c1.13-0.41,2.3-0.56,3.44-0.87c2.19-0.6,4-1.99,5.99-2.99c1.45-0.73,2.83-0.78,4.16-0.34c2.7,0.9,5.3,2.1,7.97,3.07
			c0.52,0.19,0.9,0.44,1.09,0.85C446.86,153.36,448.49,155.52,447.96,158.41z"/>
		<path class="st2" d="M285.97,144.48c-0.13-0.08-0.27-0.16-0.43-0.25c-0.16-0.09-0.33-0.19-0.51-0.3
			c-0.18-0.11-0.37-0.22-0.57-0.33c-0.2-0.11-0.4-0.23-0.61-0.35c-0.21-0.12-0.42-0.24-0.63-0.36c-0.21-0.12-0.42-0.24-0.63-0.37
			c-0.21-0.12-0.41-0.24-0.61-0.35c-0.2-0.11-0.4-0.2-0.59-0.29c-0.1-0.04-0.19-0.08-0.28-0.12c-0.09-0.04-0.18-0.08-0.26-0.11
			c-0.34-0.14-0.63-0.24-0.84-0.31c-0.05-0.02-0.1-0.03-0.14-0.04c-0.04-0.01-0.07-0.02-0.1-0.03c-0.06-0.02-0.09-0.02-0.09-0.02
			l-0.02,0.05c0,0,0.02,0.02,0.07,0.06c0.02,0.02,0.05,0.04,0.08,0.07c0.03,0.03,0.07,0.06,0.11,0.09c0.17,0.13,0.42,0.31,0.73,0.51
			c0.08,0.05,0.16,0.1,0.24,0.15c0.08,0.05,0.17,0.11,0.26,0.16c0.18,0.11,0.37,0.22,0.58,0.32c0.2,0.1,0.42,0.2,0.64,0.3
			c0.22,0.1,0.44,0.2,0.66,0.31c0.22,0.11,0.44,0.21,0.66,0.31c0.22,0.1,0.43,0.2,0.64,0.3c0.21,0.1,0.41,0.19,0.6,0.28
			c0.19,0.09,0.37,0.17,0.54,0.25c0.17,0.08,0.32,0.15,0.46,0.21c0.14,0.06,0.25,0.11,0.35,0.16c0.2,0.09,0.31,0.14,0.31,0.14
			l0.02-0.05c0,0-0.1-0.06-0.29-0.17C286.21,144.62,286.1,144.56,285.97,144.48z"/>
		<path class="st2" d="M286.95,142.56c-0.09-0.12-0.19-0.26-0.29-0.4c-0.11-0.15-0.23-0.31-0.35-0.48
			c-0.13-0.17-0.26-0.35-0.39-0.53c-0.14-0.18-0.28-0.37-0.42-0.57c-0.14-0.19-0.29-0.39-0.44-0.58c-0.15-0.19-0.29-0.39-0.43-0.59
			c-0.14-0.19-0.28-0.39-0.42-0.56c-0.14-0.18-0.29-0.35-0.43-0.5c-0.07-0.08-0.14-0.15-0.21-0.23c-0.07-0.07-0.13-0.14-0.2-0.21
			c-0.26-0.26-0.48-0.47-0.65-0.62c-0.04-0.04-0.08-0.07-0.11-0.09l-0.19-0.09c0,0,0.01,0.03,0.04,0.08
			c0.01,0.03,0.03,0.06,0.05,0.1c0.02,0.04,0.04,0.08,0.07,0.13c0.11,0.19,0.26,0.45,0.47,0.76c0.05,0.08,0.11,0.16,0.16,0.24
			c0.06,0.08,0.12,0.16,0.18,0.25c0.12,0.17,0.26,0.35,0.4,0.52c0.15,0.18,0.3,0.35,0.47,0.53c0.16,0.18,0.33,0.36,0.49,0.54
			c0.16,0.18,0.32,0.37,0.48,0.55c0.16,0.18,0.32,0.36,0.47,0.53c0.15,0.17,0.3,0.34,0.44,0.49c0.14,0.16,0.27,0.3,0.39,0.44
			c0.12,0.14,0.24,0.26,0.33,0.37c0.1,0.11,0.19,0.21,0.26,0.29c0.14,0.16,0.23,0.25,0.23,0.25l0.04-0.03c0,0-0.07-0.1-0.2-0.27
			C287.11,142.78,287.04,142.68,286.95,142.56z"/>
		<path class="st2" d="M285.55,146.63c-0.15-0.03-0.31-0.06-0.49-0.1c-0.18-0.03-0.37-0.07-0.58-0.11
			c-0.21-0.04-0.42-0.08-0.65-0.12c-0.23-0.04-0.46-0.09-0.69-0.13c-0.24-0.04-0.48-0.09-0.72-0.13c-0.24-0.04-0.48-0.09-0.72-0.14
			c-0.24-0.05-0.47-0.09-0.69-0.13c-0.23-0.03-0.45-0.06-0.65-0.08c-0.1-0.01-0.21-0.02-0.31-0.02c-0.1-0.01-0.19-0.01-0.29-0.02
			c-0.37-0.02-0.67-0.02-0.89-0.01c-0.05,0-0.1,0-0.14,0.01l-0.2,0.06c0,0,0.03,0.01,0.08,0.03c0.03,0.01,0.06,0.02,0.1,0.04
			c0.04,0.01,0.09,0.03,0.14,0.05c0.21,0.07,0.5,0.15,0.86,0.24c0.09,0.02,0.18,0.04,0.28,0.06c0.1,0.02,0.2,0.04,0.3,0.06
			c0.21,0.04,0.42,0.08,0.65,0.11c0.23,0.03,0.46,0.05,0.7,0.07c0.24,0.02,0.48,0.04,0.73,0.07c0.24,0.03,0.49,0.05,0.72,0.08
			c0.24,0.03,0.47,0.05,0.7,0.07c0.23,0.02,0.45,0.04,0.66,0.06c0.21,0.02,0.41,0.04,0.59,0.06c0.18,0.02,0.35,0.03,0.5,0.05
			c0.15,0.01,0.28,0.02,0.38,0.03c0.21,0.02,0.34,0.03,0.34,0.03l0.01-0.05c0,0-0.12-0.02-0.33-0.07
			C285.83,146.68,285.7,146.66,285.55,146.63z"/>
		<path class="st2" d="M282.93,127.16c0.02,0.04,0.05,0.08,0.08,0.12c0.12,0.18,0.3,0.43,0.53,0.71c0.06,0.07,0.12,0.14,0.18,0.22
			c0.06,0.08,0.13,0.15,0.2,0.23c0.14,0.16,0.29,0.32,0.45,0.49c0.16,0.16,0.33,0.32,0.51,0.49c0.18,0.16,0.36,0.33,0.53,0.5
			c0.18,0.17,0.35,0.34,0.53,0.5c0.17,0.17,0.35,0.33,0.51,0.49c0.17,0.16,0.33,0.31,0.48,0.45c0.15,0.14,0.3,0.28,0.43,0.4
			c0.13,0.12,0.26,0.24,0.37,0.34c0.11,0.1,0.21,0.19,0.28,0.26c0.16,0.14,0.25,0.23,0.25,0.23l0.04-0.04c0,0-0.08-0.09-0.22-0.25
			c-0.07-0.08-0.16-0.18-0.25-0.29c-0.1-0.11-0.21-0.24-0.33-0.38c-0.12-0.14-0.25-0.29-0.39-0.44c-0.14-0.16-0.29-0.32-0.44-0.49
			c-0.15-0.17-0.31-0.35-0.47-0.53c-0.16-0.18-0.33-0.36-0.49-0.54c-0.16-0.18-0.32-0.37-0.48-0.55c-0.16-0.18-0.31-0.36-0.47-0.52
			c-0.16-0.16-0.32-0.32-0.47-0.46c-0.08-0.07-0.15-0.14-0.23-0.21c-0.07-0.07-0.15-0.13-0.22-0.19c-0.28-0.24-0.52-0.43-0.7-0.56
			c-0.04-0.03-0.08-0.06-0.12-0.08l-0.2-0.07c0,0,0.02,0.03,0.05,0.08C282.89,127.09,282.91,127.12,282.93,127.16z"/>
		<path class="st2" d="M291.07,126.46c0.01,0.24,0.03,0.49,0.04,0.73c0.01,0.24,0.03,0.48,0.05,0.7c0.02,0.23,0.03,0.45,0.05,0.66
			c0.02,0.21,0.03,0.41,0.04,0.59c0.01,0.18,0.03,0.35,0.04,0.5c0.01,0.15,0.02,0.28,0.03,0.38c0.02,0.21,0.03,0.33,0.03,0.33
			l0.05,0c0,0,0-0.12,0.01-0.34c0-0.11,0.01-0.24,0.01-0.39c0-0.15,0.01-0.32,0.01-0.5c0-0.18,0.01-0.38,0.01-0.59
			c0-0.21,0.01-0.43,0.01-0.66c0-0.23,0.01-0.47,0.01-0.71c0-0.24,0-0.48,0.01-0.73c0-0.24,0.01-0.49,0.02-0.73
			c0.01-0.24,0.01-0.48,0.01-0.71c0-0.23-0.02-0.45-0.03-0.66c-0.01-0.1-0.02-0.21-0.03-0.3c-0.01-0.1-0.02-0.19-0.03-0.28
			c-0.04-0.36-0.09-0.67-0.14-0.88c-0.01-0.05-0.02-0.1-0.03-0.14l-0.1-0.19c0,0-0.01,0.03-0.02,0.09
			c-0.01,0.03-0.01,0.06-0.02,0.11c-0.01,0.04-0.02,0.09-0.02,0.14c-0.03,0.21-0.07,0.52-0.09,0.89c-0.01,0.09-0.01,0.19-0.02,0.29
			c0,0.1-0.01,0.2-0.01,0.31c-0.01,0.21-0.01,0.43,0,0.66c0.01,0.23,0.02,0.46,0.04,0.7C291.04,125.97,291.06,126.22,291.07,126.46z
			"/>
		<path class="st2" d="M286.46,124.37c0.01,0.04,0.02,0.09,0.04,0.14c0.06,0.21,0.15,0.5,0.27,0.85c0.03,0.09,0.06,0.18,0.1,0.27
			c0.04,0.09,0.07,0.19,0.11,0.29c0.08,0.2,0.16,0.4,0.26,0.61c0.1,0.21,0.21,0.42,0.32,0.63c0.11,0.21,0.23,0.43,0.34,0.65
			c0.11,0.22,0.22,0.44,0.33,0.65c0.11,0.21,0.22,0.42,0.32,0.63c0.11,0.2,0.21,0.4,0.3,0.59c0.1,0.19,0.19,0.36,0.27,0.52
			c0.09,0.16,0.16,0.31,0.23,0.44c0.07,0.13,0.13,0.25,0.18,0.34c0.1,0.19,0.16,0.3,0.16,0.3l0.05-0.02c0,0-0.04-0.11-0.12-0.31
			c-0.04-0.1-0.09-0.22-0.14-0.36c-0.06-0.14-0.12-0.29-0.19-0.46c-0.07-0.17-0.14-0.35-0.22-0.55c-0.08-0.19-0.16-0.4-0.25-0.61
			c-0.09-0.21-0.18-0.43-0.27-0.65c-0.09-0.22-0.19-0.45-0.28-0.67c-0.09-0.23-0.19-0.45-0.27-0.68c-0.09-0.22-0.18-0.44-0.27-0.65
			c-0.1-0.21-0.19-0.41-0.29-0.59c-0.05-0.09-0.1-0.18-0.15-0.27c-0.05-0.09-0.09-0.17-0.14-0.25c-0.18-0.32-0.35-0.58-0.47-0.75
			c-0.03-0.05-0.06-0.08-0.08-0.12c-0.02-0.03-0.05-0.06-0.06-0.09c-0.03-0.05-0.05-0.07-0.05-0.07l-0.05,0.02
			c0,0,0.01,0.03,0.02,0.09C286.44,124.29,286.45,124.33,286.46,124.37z"/>
		<path class="st2" d="M331.12,141.16c0.01,0.12,0.01,0.24,0.02,0.36c0.03,0.46,0.07,0.85,0.11,1.12c0.01,0.07,0.02,0.13,0.03,0.18
			l0.11,0.25c0,0,0.01-0.04,0.03-0.11c0.01-0.04,0.02-0.08,0.03-0.13c0.01-0.05,0.02-0.11,0.04-0.18c0.05-0.27,0.12-0.65,0.17-1.11
			c0.01-0.11,0.03-0.23,0.04-0.36c0.01-0.12,0.02-0.25,0.03-0.38c0.02-0.26,0.04-0.54,0.04-0.83c0.01-0.29,0-0.58-0.01-0.89
			c-0.01-0.3-0.02-0.61-0.02-0.92c0-0.31-0.01-0.61-0.01-0.92c0-0.3-0.01-0.6-0.01-0.89c-0.01-0.29-0.01-0.57-0.01-0.83
			c-0.01-0.26-0.01-0.51-0.02-0.74c-0.01-0.23-0.01-0.44-0.02-0.63c-0.01-0.19-0.01-0.35-0.01-0.48c-0.01-0.27-0.01-0.42-0.01-0.42
			l-0.06,0c0,0-0.01,0.15-0.04,0.42c-0.01,0.13-0.02,0.3-0.04,0.48c-0.01,0.19-0.03,0.4-0.05,0.63c-0.02,0.23-0.04,0.48-0.06,0.74
			c-0.02,0.26-0.04,0.54-0.06,0.83c-0.02,0.29-0.04,0.58-0.06,0.89c-0.02,0.3-0.04,0.61-0.06,0.91c-0.02,0.31-0.04,0.61-0.07,0.91
			c-0.03,0.3-0.05,0.6-0.06,0.89c-0.01,0.29-0.01,0.57,0,0.83C331.1,140.91,331.11,141.04,331.12,141.16z"/>
		<path class="st2" d="M326.47,139.28c-0.1,0.27-0.19,0.53-0.27,0.78c-0.04,0.13-0.08,0.25-0.11,0.37c-0.03,0.12-0.07,0.23-0.1,0.35
			c-0.12,0.44-0.21,0.82-0.26,1.09c-0.01,0.07-0.02,0.13-0.03,0.18c-0.01,0.05-0.02,0.1-0.02,0.13c-0.01,0.07-0.02,0.11-0.02,0.11
			l0.06,0.02c0,0,0.02-0.03,0.06-0.09c0.02-0.03,0.04-0.07,0.07-0.11c0.03-0.05,0.06-0.1,0.09-0.16c0.14-0.23,0.33-0.57,0.53-0.99
			c0.05-0.1,0.1-0.21,0.16-0.32c0.05-0.11,0.11-0.23,0.16-0.35c0.11-0.24,0.22-0.5,0.32-0.77c0.1-0.27,0.19-0.55,0.28-0.84
			c0.09-0.29,0.19-0.58,0.28-0.87c0.1-0.29,0.2-0.58,0.3-0.87c0.1-0.29,0.19-0.57,0.28-0.84c0.09-0.27,0.18-0.54,0.26-0.79
			c0.08-0.25,0.16-0.49,0.23-0.71c0.07-0.22,0.14-0.42,0.19-0.6c0.06-0.18,0.11-0.33,0.15-0.46c0.08-0.26,0.13-0.4,0.13-0.4
			l-0.06-0.02c0,0-0.06,0.14-0.17,0.39c-0.05,0.12-0.12,0.27-0.2,0.44c-0.08,0.17-0.16,0.36-0.25,0.57
			c-0.09,0.21-0.19,0.44-0.3,0.68c-0.1,0.24-0.22,0.5-0.33,0.76c-0.11,0.26-0.23,0.54-0.35,0.82c-0.12,0.28-0.24,0.56-0.36,0.84
			c-0.12,0.28-0.24,0.56-0.37,0.84C326.69,138.74,326.57,139.01,326.47,139.28z"/>
		<path class="st2" d="M325.92,133.59c0.15-0.17,0.29-0.33,0.42-0.47c0.12-0.14,0.23-0.26,0.32-0.37c0.18-0.2,0.28-0.32,0.28-0.32
			l-0.05-0.05c0,0-0.11,0.1-0.31,0.29c-0.1,0.09-0.22,0.2-0.36,0.33c-0.14,0.13-0.29,0.27-0.46,0.43c-0.17,0.16-0.35,0.33-0.54,0.51
			c-0.19,0.18-0.39,0.37-0.6,0.57c-0.21,0.2-0.43,0.4-0.64,0.61c-0.22,0.21-0.44,0.42-0.66,0.63c-0.22,0.21-0.45,0.42-0.67,0.62
			c-0.22,0.2-0.44,0.41-0.64,0.61c-0.2,0.21-0.39,0.41-0.56,0.61c-0.09,0.1-0.17,0.2-0.25,0.29c-0.08,0.1-0.16,0.19-0.23,0.28
			c-0.29,0.36-0.52,0.67-0.67,0.9c-0.04,0.06-0.07,0.11-0.1,0.15l-0.09,0.25c0,0,0.03-0.02,0.09-0.06c0.03-0.02,0.07-0.05,0.11-0.08
			c0.04-0.03,0.09-0.07,0.15-0.11c0.22-0.16,0.53-0.4,0.88-0.7c0.09-0.07,0.18-0.15,0.27-0.24c0.09-0.08,0.19-0.17,0.29-0.26
			c0.2-0.18,0.4-0.37,0.6-0.58c0.2-0.21,0.4-0.43,0.59-0.66s0.4-0.46,0.61-0.69c0.21-0.23,0.41-0.45,0.62-0.68
			c0.2-0.22,0.4-0.45,0.59-0.66c0.19-0.21,0.38-0.42,0.55-0.62C325.6,133.95,325.77,133.77,325.92,133.59z"/>
	</g>
</g>
</svg>
